<?xml version="1.0" encoding="UTF-8"?>
<!--Generator: Apple Native CoreSVG 175-->
<!DOCTYPE svg
PUBLIC "-//W3C//DTD SVG 1.1//EN"
       "http://www.w3.org/Graphics/SVG/1.1/DTD/svg11.dtd">
<svg version="1.1" xmlns="http://www.w3.org/2000/svg" xmlns:xlink="http://www.w3.org/1999/xlink" width="3300" height="2200">
 <!--glyph: "uni100AF5.medium", point size: 100.0, font version: "17.0d11e1", template writer version: "65.1"-->
 <g id="Notes">
  <rect height="2200" id="artboard" style="fill:white;opacity:1" width="3300" x="0" y="0"/>
  <line style="fill:none;stroke:black;opacity:1;stroke-width:0.5;" x1="263" x2="3036" y1="292" y2="292"/>
  <text style="stroke:none;fill:black;font-family:sans-serif;font-size:13;font-weight:bold;" transform="matrix(1 0 0 1 263 322)">Weight/Scale Variations</text>
  <text style="stroke:none;fill:black;font-family:sans-serif;font-size:13;text-anchor:middle;" transform="matrix(1 0 0 1 559.711 322)">Ultralight</text>
  <text style="stroke:none;fill:black;font-family:sans-serif;font-size:13;text-anchor:middle;" transform="matrix(1 0 0 1 856.422 322)">Thin</text>
  <text style="stroke:none;fill:black;font-family:sans-serif;font-size:13;text-anchor:middle;" transform="matrix(1 0 0 1 1153.13 322)">Light</text>
  <text style="stroke:none;fill:black;font-family:sans-serif;font-size:13;text-anchor:middle;" transform="matrix(1 0 0 1 1449.84 322)">Regular</text>
  <text style="stroke:none;fill:black;font-family:sans-serif;font-size:13;text-anchor:middle;" transform="matrix(1 0 0 1 1746.56 322)">Medium</text>
  <text style="stroke:none;fill:black;font-family:sans-serif;font-size:13;text-anchor:middle;" transform="matrix(1 0 0 1 2043.27 322)">Semibold</text>
  <text style="stroke:none;fill:black;font-family:sans-serif;font-size:13;text-anchor:middle;" transform="matrix(1 0 0 1 2339.98 322)">Bold</text>
  <text style="stroke:none;fill:black;font-family:sans-serif;font-size:13;text-anchor:middle;" transform="matrix(1 0 0 1 2636.69 322)">Heavy</text>
  <text style="stroke:none;fill:black;font-family:sans-serif;font-size:13;text-anchor:middle;" transform="matrix(1 0 0 1 2933.4 322)">Black</text>
  <line style="fill:none;stroke:black;opacity:1;stroke-width:0.5;" x1="263" x2="3036" y1="1903" y2="1903"/>
  <g transform="matrix(1 0 0 1 263 1933)">
   <path d="M9.24805 0.830078Q10.8691 0.830078 12.2949 0.214844Q13.7207-0.400391 14.8096-1.49414Q15.8984-2.58789 16.5186-4.01367Q17.1387-5.43945 17.1387-7.05078Q17.1387-8.66211 16.5186-10.0879Q15.8984-11.5137 14.8047-12.6074Q13.7109-13.7012 12.2852-14.3164Q10.8594-14.9316 9.23828-14.9316Q7.62695-14.9316 6.20117-14.3164Q4.77539-13.7012 3.69141-12.6074Q2.60742-11.5137 1.9873-10.0879Q1.36719-8.66211 1.36719-7.05078Q1.36719-5.43945 1.9873-4.01367Q2.60742-2.58789 3.69629-1.49414Q4.78516-0.400391 6.21094 0.214844Q7.63672 0.830078 9.24805 0.830078ZM9.24805-0.654297Q7.91992-0.654297 6.7627-1.14746Q5.60547-1.64062 4.73145-2.51953Q3.85742-3.39844 3.36426-4.56055Q2.87109-5.72266 2.87109-7.05078Q2.87109-8.37891 3.35938-9.54102Q3.84766-10.7031 4.72168-11.582Q5.5957-12.4609 6.75293-12.9541Q7.91016-13.4473 9.23828-13.4473Q10.5762-13.4473 11.7334-12.9541Q12.8906-12.4609 13.7695-11.582Q14.6484-10.7031 15.1465-9.54102Q15.6445-8.37891 15.6445-7.05078Q15.6445-5.72266 15.1514-4.56055Q14.6582-3.39844 13.7842-2.51953Q12.9102-1.64062 11.748-1.14746Q10.5859-0.654297 9.24805-0.654297ZM5.6543-7.05078Q5.6543-6.72852 5.85938-6.52832Q6.06445-6.32812 6.40625-6.32812L8.51562-6.32812L8.51562-4.20898Q8.51562-3.88672 8.71094-3.67676Q8.90625-3.4668 9.23828-3.4668Q9.56055-3.4668 9.77051-3.67676Q9.98047-3.88672 9.98047-4.20898L9.98047-6.32812L12.0898-6.32812Q12.4219-6.32812 12.627-6.52832Q12.832-6.72852 12.832-7.05078Q12.832-7.38281 12.627-7.58789Q12.4219-7.79297 12.0898-7.79297L9.98047-7.79297L9.98047-9.90234Q9.98047-10.2344 9.77051-10.4443Q9.56055-10.6543 9.23828-10.6543Q8.90625-10.6543 8.71094-10.4443Q8.51562-10.2344 8.51562-9.90234L8.51562-7.79297L6.40625-7.79297Q6.06445-7.79297 5.85938-7.58789Q5.6543-7.38281 5.6543-7.05078Z"/>
  </g>
  <g transform="matrix(1 0 0 1 281.867 1933)">
   <path d="M11.709 2.91016Q13.75 2.91016 15.5518 2.12891Q17.3535 1.34766 18.7305-0.0292969Q20.1074-1.40625 20.8887-3.20801Q21.6699-5.00977 21.6699-7.05078Q21.6699-9.0918 20.8887-10.8936Q20.1074-12.6953 18.7305-14.0723Q17.3535-15.4492 15.5469-16.2305Q13.7402-17.0117 11.6992-17.0117Q9.6582-17.0117 7.85645-16.2305Q6.05469-15.4492 4.68262-14.0723Q3.31055-12.6953 2.5293-10.8936Q1.74805-9.0918 1.74805-7.05078Q1.74805-5.00977 2.5293-3.20801Q3.31055-1.40625 4.6875-0.0292969Q6.06445 1.34766 7.86621 2.12891Q9.66797 2.91016 11.709 2.91016ZM11.709 1.25Q9.98047 1.25 8.47656 0.605469Q6.97266-0.0390625 5.83496-1.17676Q4.69727-2.31445 4.05762-3.81836Q3.41797-5.32227 3.41797-7.05078Q3.41797-8.7793 4.05762-10.2832Q4.69727-11.7871 5.83008-12.9297Q6.96289-14.0723 8.4668-14.7119Q9.9707-15.3516 11.6992-15.3516Q13.4277-15.3516 14.9316-14.7119Q16.4355-14.0723 17.5781-12.9297Q18.7207-11.7871 19.3652-10.2832Q20.0098-8.7793 20.0098-7.05078Q20.0098-5.32227 19.3701-3.81836Q18.7305-2.31445 17.5928-1.17676Q16.4551-0.0390625 14.9463 0.605469Q13.4375 1.25 11.709 1.25ZM7.17773-7.05078Q7.17773-6.69922 7.41211-6.47461Q7.64648-6.25 8.01758-6.25L10.8887-6.25L10.8887-3.36914Q10.8887-2.99805 11.1133-2.76855Q11.3379-2.53906 11.6895-2.53906Q12.0605-2.53906 12.29-2.76855Q12.5195-2.99805 12.5195-3.36914L12.5195-6.25L15.4004-6.25Q15.7715-6.25 16.001-6.47461Q16.2305-6.69922 16.2305-7.05078Q16.2305-7.42188 16.001-7.65137Q15.7715-7.88086 15.4004-7.88086L12.5195-7.88086L12.5195-10.752Q12.5195-11.1328 12.29-11.3623Q12.0605-11.5918 11.6895-11.5918Q11.3379-11.5918 11.1133-11.3574Q10.8887-11.123 10.8887-10.752L10.8887-7.88086L8.01758-7.88086Q7.63672-7.88086 7.40723-7.65137Q7.17773-7.42188 7.17773-7.05078Z"/>
  </g>
  <g transform="matrix(1 0 0 1 305.646 1933)">
   <path d="M14.9707 5.66406Q17.0605 5.66406 18.96 5.01465Q20.8594 4.36523 22.4512 3.19336Q24.043 2.02148 25.2197 0.429688Q26.3965-1.16211 27.0459-3.06641Q27.6953-4.9707 27.6953-7.05078Q27.6953-9.14062 27.0459-11.04Q26.3965-12.9395 25.2197-14.5312Q24.043-16.123 22.4512-17.2998Q20.8594-18.4766 18.9551-19.126Q17.0508-19.7754 14.9609-19.7754Q12.8711-19.7754 10.9717-19.126Q9.07227-18.4766 7.48535-17.2998Q5.89844-16.123 4.72168-14.5312Q3.54492-12.9395 2.90039-11.04Q2.25586-9.14062 2.25586-7.05078Q2.25586-4.9707 2.90527-3.06641Q3.55469-1.16211 4.72656 0.429688Q5.89844 2.02148 7.49023 3.19336Q9.08203 4.36523 10.9814 5.01465Q12.8809 5.66406 14.9707 5.66406ZM14.9707 3.84766Q13.1641 3.84766 11.5283 3.2959Q9.89258 2.74414 8.53516 1.74805Q7.17773 0.751953 6.17676-0.610352Q5.17578-1.97266 4.62891-3.6084Q4.08203-5.24414 4.08203-7.05078Q4.08203-8.86719 4.62891-10.5029Q5.17578-12.1387 6.17188-13.501Q7.16797-14.8633 8.52539-15.8594Q9.88281-16.8555 11.5186-17.4023Q13.1543-17.9492 14.9609-17.9492Q16.7773-17.9492 18.4131-17.4023Q20.0488-16.8555 21.4111-15.8594Q22.7734-14.8633 23.7695-13.501Q24.7656-12.1387 25.3174-10.5029Q25.8691-8.86719 25.8691-7.05078Q25.8789-5.24414 25.332-3.6084Q24.7852-1.97266 23.7842-0.610352Q22.7832 0.751953 21.4209 1.74805Q20.0586 2.74414 18.4229 3.2959Q16.7871 3.84766 14.9707 3.84766ZM9.19922-7.05078Q9.19922-6.66992 9.45801-6.4209Q9.7168-6.17188 10.1172-6.17188L14.0625-6.17188L14.0625-2.2168Q14.0625-1.81641 14.3115-1.55762Q14.5605-1.29883 14.9512-1.29883Q15.3516-1.29883 15.6104-1.55273Q15.8691-1.80664 15.8691-2.2168L15.8691-6.17188L19.8242-6.17188Q20.2246-6.17188 20.4785-6.4209Q20.7324-6.66992 20.7324-7.05078Q20.7324-7.46094 20.4785-7.71484Q20.2246-7.96875 19.8242-7.96875L15.8691-7.96875L15.8691-11.9141Q15.8691-12.3242 15.6104-12.583Q15.3516-12.8418 14.9512-12.8418Q14.5605-12.8418 14.3115-12.583Q14.0625-12.3242 14.0625-11.9141L14.0625-7.96875L10.1172-7.96875Q9.70703-7.96875 9.45312-7.71484Q9.19922-7.46094 9.19922-7.05078Z"/>
  </g>
  <text style="stroke:none;fill:black;font-family:sans-serif;font-size:13;font-weight:bold;" transform="matrix(1 0 0 1 263 1953)">Design Variations</text>
  <text style="stroke:none;fill:black;font-family:sans-serif;font-size:13;" transform="matrix(1 0 0 1 263 1971)">Symbols are supported in up to nine weights and three scales.</text>
  <text style="stroke:none;fill:black;font-family:sans-serif;font-size:13;" transform="matrix(1 0 0 1 263 1989)">For optimal layout with text and other symbols, vertically align</text>
  <text style="stroke:none;fill:black;font-family:sans-serif;font-size:13;" transform="matrix(1 0 0 1 263 2007)">symbols with the adjacent text.</text>
  <line style="fill:none;stroke:#00AEEF;stroke-width:0.5;opacity:1.0;" x1="776" x2="776" y1="1919" y2="1933"/>
  <g transform="matrix(1 0 0 1 776 1933)">
   <path d="M3.31055 0.15625Q3.70117 0.15625 3.91602-0.00976562Q4.13086-0.175781 4.26758-0.585938L5.52734-4.0332L11.2891-4.0332L12.5488-0.585938Q12.6855-0.175781 12.9004-0.00976562Q13.1152 0.15625 13.4961 0.15625Q13.8867 0.15625 14.1162-0.0585938Q14.3457-0.273438 14.3457-0.644531Q14.3457-0.869141 14.2383-1.17188L9.6582-13.3691Q9.48242-13.8184 9.17969-14.043Q8.87695-14.2676 8.4082-14.2676Q7.5-14.2676 7.17773-13.3789L2.59766-1.16211Q2.49023-0.859375 2.49023-0.634766Q2.49023-0.263672 2.70996-0.0537109Q2.92969 0.15625 3.31055 0.15625ZM6.00586-5.51758L8.37891-12.0898L8.42773-12.0898L10.8008-5.51758Z"/>
  </g>
  <line style="fill:none;stroke:#00AEEF;stroke-width:0.5;opacity:1.0;" x1="793.197" x2="793.197" y1="1919" y2="1933"/>
  <text style="stroke:none;fill:black;font-family:sans-serif;font-size:13;font-weight:bold;" transform="matrix(1 0 0 1 776 1953)">Margins</text>
  <text style="stroke:none;fill:black;font-family:sans-serif;font-size:13;" transform="matrix(1 0 0 1 776 1971)">Leading and trailing margins on the left and right side of each symbol</text>
  <text style="stroke:none;fill:black;font-family:sans-serif;font-size:13;" transform="matrix(1 0 0 1 776 1989)">can be adjusted by modifying the x-location of the margin guidelines.</text>
  <text style="stroke:none;fill:black;font-family:sans-serif;font-size:13;" transform="matrix(1 0 0 1 776 2007)">Modifications are automatically applied proportionally to all</text>
  <text style="stroke:none;fill:black;font-family:sans-serif;font-size:13;" transform="matrix(1 0 0 1 776 2025)">scales and weights.</text>
  <g transform="matrix(1 0 0 1 1289 1933)">
   <path d="M2.8418 1.86523L4.54102 3.57422Q5.18555 4.22852 5.90332 4.17969Q6.62109 4.13086 7.31445 3.35938L18.0078-8.42773L17.041-9.4043L6.42578 2.27539Q6.16211 2.57812 5.89355 2.61719Q5.625 2.65625 5.27344 2.30469L4.10156 1.14258Q3.75 0.791016 3.79395 0.522461Q3.83789 0.253906 4.14062-0.0195312L15.6152-10.8203L14.6387-11.7871L3.04688-0.898438Q2.30469-0.214844 2.25098 0.498047Q2.19727 1.21094 2.8418 1.86523ZM9.25781-16.3281Q8.94531-16.0254 8.90625-15.6348Q8.86719-15.2441 9.04297-14.9512Q9.21875-14.6777 9.55566-14.541Q9.89258-14.4043 10.3809-14.5215Q11.4746-14.7754 12.5977-14.7314Q13.7207-14.6875 14.7949-13.9844L14.209-12.5293Q13.9551-11.9043 14.0674-11.4404Q14.1797-10.9766 14.5801-10.5664L16.875-8.25195Q17.2363-7.88086 17.5781-7.82227Q17.9199-7.76367 18.3398-7.8418L19.4043-8.03711L20.0684-7.36328L20.0293-6.80664Q20-6.43555 20.1221-6.12305Q20.2441-5.81055 20.6055-5.44922L21.3672-4.70703Q21.7285-4.3457 22.1533-4.33105Q22.5781-4.31641 22.9297-4.66797L25.8398-7.58789Q26.1914-7.93945 26.1816-8.35449Q26.1719-8.76953 25.8105-9.13086L25.0391-9.89258Q24.6875-10.2539 24.3799-10.3857Q24.0723-10.5176 23.7109-10.4883L23.1348-10.4395L22.4902-11.0742L22.7344-12.1973Q22.832-12.6172 22.6953-12.9834Q22.5586-13.3496 22.1191-13.7891L19.9219-15.9766Q18.6719-17.2168 17.2607-17.8369Q15.8496-18.457 14.4189-18.4814Q12.9883-18.5059 11.665-17.959Q10.3418-17.4121 9.25781-16.3281ZM10.752-15.957Q11.6602-16.6211 12.7002-16.9043Q13.7402-17.1875 14.8047-17.085Q15.8691-16.9824 16.8701-16.5137Q17.8711-16.0449 18.7012-15.2051L21.1328-12.793Q21.3086-12.6172 21.3525-12.4512Q21.3965-12.2852 21.3379-12.0312L21.0156-10.5469L22.5195-9.0625L23.5059-9.12109Q23.6914-9.13086 23.7891-9.09668Q23.8867-9.0625 24.0332-8.91602L24.6094-8.33984L22.168-5.89844L21.5918-6.47461Q21.4453-6.62109 21.4062-6.71875Q21.3672-6.81641 21.377-7.01172L21.4453-7.98828L19.9512-9.47266L18.4277-9.21875Q18.1836-9.16992 18.042-9.2041Q17.9004-9.23828 17.7148-9.41406L15.7129-11.416Q15.5176-11.5918 15.4932-11.7529Q15.4688-11.9141 15.5859-12.1875L16.4648-14.2773Q15.293-15.3711 13.8281-15.791Q12.3633-16.2109 10.8398-15.7617Q10.7227-15.7324 10.6885-15.8057Q10.6543-15.8789 10.752-15.957Z"/>
  </g>
  <text style="stroke:none;fill:black;font-family:sans-serif;font-size:13;font-weight:bold;" transform="matrix(1 0 0 1 1289 1953)">Exporting</text>
  <text style="stroke:none;fill:black;font-family:sans-serif;font-size:13;" transform="matrix(1 0 0 1 1289 1971)">Symbols should be outlined when exporting to ensure the</text>
  <text style="stroke:none;fill:black;font-family:sans-serif;font-size:13;" transform="matrix(1 0 0 1 1289 1989)">design is preserved when submitting to Xcode.</text>
  <text id="template-version" style="stroke:none;fill:black;font-family:sans-serif;font-size:13;text-anchor:end;" transform="matrix(1 0 0 1 3036 1933)">Template v.2.0</text>
  <text style="stroke:none;fill:black;font-family:sans-serif;font-size:13;text-anchor:end;" transform="matrix(1 0 0 1 3036 1951)">Requires Xcode 13 or greater</text>
  <text id="descriptive-name" style="stroke:none;fill:black;font-family:sans-serif;font-size:13;text-anchor:end;" transform="matrix(1 0 0 1 3036 1969)">Generated from arrow.right.doc.on.clipboard</text>
  <text style="stroke:none;fill:black;font-family:sans-serif;font-size:13;text-anchor:end;" transform="matrix(1 0 0 1 3036 1987)">Typeset at 100 points</text>
  <text style="stroke:none;fill:black;font-family:sans-serif;font-size:13;" transform="matrix(1 0 0 1 263 726)">Small</text>
  <text style="stroke:none;fill:black;font-family:sans-serif;font-size:13;" transform="matrix(1 0 0 1 263 1156)">Medium</text>
  <text style="stroke:none;fill:black;font-family:sans-serif;font-size:13;" transform="matrix(1 0 0 1 263 1586)">Large</text>
 </g>
 <g id="Guides">
  <g id="H-reference" style="fill:#27AAE1;stroke:none;" transform="matrix(1 0 0 1 339 696)">
   <path d="M0.976562 0L3.66211 0L29.3457-67.1387L30.0293-67.1387L30.0293-70.459L28.125-70.459ZM11.6699-24.4629L46.9727-24.4629L46.2402-26.709L12.4512-26.709ZM55.127 0L57.7637 0L30.6152-70.459L29.4434-70.459L29.4434-67.1387Z"/>
  </g>
  <line id="Baseline-S" style="fill:none;stroke:#27AAE1;opacity:1;stroke-width:0.5;" x1="263" x2="3036" y1="696" y2="696"/>
  <line id="Capline-S" style="fill:none;stroke:#27AAE1;opacity:1;stroke-width:0.5;" x1="263" x2="3036" y1="625.541" y2="625.541"/>
  <g id="H-reference" style="fill:#27AAE1;stroke:none;" transform="matrix(1 0 0 1 339 1126)">
   <path d="M0.976562 0L3.66211 0L29.3457-67.1387L30.0293-67.1387L30.0293-70.459L28.125-70.459ZM11.6699-24.4629L46.9727-24.4629L46.2402-26.709L12.4512-26.709ZM55.127 0L57.7637 0L30.6152-70.459L29.4434-70.459L29.4434-67.1387Z"/>
  </g>
  <line id="Baseline-M" style="fill:none;stroke:#27AAE1;opacity:1;stroke-width:0.5;" x1="263" x2="3036" y1="1126" y2="1126"/>
  <line id="Capline-M" style="fill:none;stroke:#27AAE1;opacity:1;stroke-width:0.5;" x1="263" x2="3036" y1="1055.54" y2="1055.54"/>
  <g id="H-reference" style="fill:#27AAE1;stroke:none;" transform="matrix(1 0 0 1 339 1556)">
   <path d="M0.976562 0L3.66211 0L29.3457-67.1387L30.0293-67.1387L30.0293-70.459L28.125-70.459ZM11.6699-24.4629L46.9727-24.4629L46.2402-26.709L12.4512-26.709ZM55.127 0L57.7637 0L30.6152-70.459L29.4434-70.459L29.4434-67.1387Z"/>
  </g>
  <line id="Baseline-L" style="fill:none;stroke:#27AAE1;opacity:1;stroke-width:0.5;" x1="263" x2="3036" y1="1556" y2="1556"/>
  <line id="Capline-L" style="fill:none;stroke:#27AAE1;opacity:1;stroke-width:0.5;" x1="263" x2="3036" y1="1485.54" y2="1485.54"/>
  <line id="left-margin" style="fill:none;stroke:#00AEEF;stroke-width:0.5;opacity:1.0;" x1="1387.47" x2="1387.47" y1="1030.79" y2="1150.12"/>
  <line id="right-margin" style="fill:none;stroke:#00AEEF;stroke-width:0.5;opacity:1.0;" x1="1512.22" x2="1512.22" y1="1030.79" y2="1150.12"/>
 </g>
 <g id="Symbols">
  <g id="Black-L" transform="matrix(1 0 0 1 2847.93 1556)">
   <path d="M49.3164-68.6523L101.025-68.6523Q104.004-68.6523 106.47-67.334Q108.936-66.0156 110.4-63.4277Q111.865-60.8398 111.865-57.1289L111.865 12.5977L131.104 12.5977Q142.48 12.5977 148.682 6.34766Q154.883 0.0976562 154.883-11.3281L154.883-94.5801Q154.883-106.006 148.682-112.256Q142.48-118.506 131.104-118.506L73.1445-118.506Q61.7188-118.506 55.5176-112.28Q49.3164-106.055 49.3164-94.5801ZM83.5449-97.5098L83.5449-99.1699Q83.5449-100.635 84.79-102.417Q86.0352-104.199 88.623-104.199L115.625-104.199Q118.213-104.199 119.482-102.417Q120.752-100.635 120.752-99.1699L120.752-97.5098Q120.752-95.5566 119.287-94.0186Q117.822-92.4805 115.625-92.4805L88.623-92.4805Q86.4258-92.4805 84.9854-94.0186Q83.5449-95.5566 83.5449-97.5098ZM16.0645 24.1211Q16.0645 35.5957 22.2656 41.8213Q28.4668 48.0469 39.8926 48.0469L97.8516 48.0469Q109.229 48.0469 115.43 41.7969Q121.631 35.5469 121.631 24.1211L121.631-59.1797Q121.631-70.6055 115.43-76.8311Q109.229-83.0566 97.8516-83.0566L39.8926-83.0566Q28.4668-83.0566 22.2656-76.8311Q16.0645-70.6055 16.0645-59.1797ZM36.3281 21.3867L36.3281-56.4453Q36.3281-59.6191 37.8174-61.2305Q39.3066-62.8418 42.7246-62.8418L94.9707-62.8418Q98.3887-62.8418 99.9023-61.2305Q101.416-59.6191 101.416-56.4453L101.416 21.3867Q101.416 24.5605 99.9023 26.1719Q98.3887 27.7832 94.9707 27.7832L42.7246 27.7832Q39.3066 27.7832 37.8174 26.1719Q36.3281 24.5605 36.3281 21.3867ZM43.3594-17.3828Q43.3594-14.502 45.166-12.5488Q46.9727-10.5957 49.707-10.5957L66.6016-10.5957L76.2695-11.1816L71.9238-8.39844L66.7969-4.10156Q64.9414-2.58789 64.9414 0.195312Q64.9414 2.7832 66.4551 4.39453Q67.9688 6.00586 70.3613 6.00586Q72.8027 6.00586 74.7559 4.19922L91.7969-11.7188Q94.3359-14.0137 94.3359-17.3828Q94.3359-20.752 91.7969-23.0469L74.7559-38.9648Q72.8027-40.7715 70.3613-40.7715Q67.9688-40.7715 66.4551-39.1602Q64.9414-37.5488 64.9414-34.9609Q64.9414-32.2754 66.7969-30.7129L71.7285-26.416L76.2695-23.584L66.6016-24.2188L49.707-24.2188Q46.9727-24.2188 45.166-22.2412Q43.3594-20.2637 43.3594-17.3828Z"/>
  </g>
  <g id="Heavy-L" transform="matrix(1 0 0 1 2552.51 1556)">
   <path d="M48.6816-70.8984L99.707-70.8984Q102.832-70.8984 105.469-69.5068Q108.105-68.1152 109.692-65.3809Q111.279-62.6465 111.279-58.6426L111.279 12.5977L129.688 12.5977Q140.625 12.5977 146.46 6.68945Q152.295 0.78125 152.295-10.2051L152.295-94.6777Q152.295-105.615 146.46-111.523Q140.625-117.432 129.688-117.432L71.3379-117.432Q60.4004-117.432 54.541-111.548Q48.6816-105.664 48.6816-94.6777ZM81.8848-97.3145L81.8848-98.877Q81.8848-100.342 83.0566-101.953Q84.2285-103.564 86.6699-103.564L114.355-103.564Q116.797-103.564 117.969-101.953Q119.141-100.342 119.141-98.877L119.141-97.3145Q119.141-95.5078 117.822-94.0918Q116.504-92.6758 114.355-92.6758L86.6699-92.6758Q84.5215-92.6758 83.2031-94.0918Q81.8848-95.5078 81.8848-97.3145ZM16.0645 24.1699Q16.0645 35.2051 21.9238 41.0645Q27.7832 46.9238 38.7207 46.9238L97.1191 46.9238Q108.008 46.9238 113.867 41.04Q119.727 35.1562 119.727 24.1699L119.727-60.3516Q119.727-71.2891 113.867-77.1729Q108.008-83.0566 97.1191-83.0566L38.7207-83.0566Q27.7832-83.0566 21.9238-77.1973Q16.0645-71.3379 16.0645-60.3516ZM33.5938 22.0703L33.5938-58.2031Q33.5938-61.8652 35.3516-63.7207Q37.1094-65.5762 40.9668-65.5762L94.7754-65.5762Q98.6328-65.5762 100.439-63.7207Q102.246-61.8652 102.246-58.2031L102.246 22.0703Q102.246 25.6836 100.439 27.5635Q98.6328 29.4434 94.7754 29.4434L40.9668 29.4434Q37.1094 29.4434 35.3516 27.5635Q33.5938 25.6836 33.5938 22.0703ZM41.7969-18.0176Q41.7969-15.4297 43.4082-13.7207Q45.0195-12.0117 47.4609-12.0117L67.5293-12.0117L77.4414-12.5488L72.4609-8.93555L66.9434-4.05273Q65.2344-2.63672 65.2344-0.195312Q65.2344 2.14844 66.626 3.58887Q68.0176 5.0293 70.166 5.0293Q72.3633 5.0293 74.1211 3.41797L91.4551-13.0371Q93.7012-15.1367 93.7012-18.0176Q93.7012-20.8984 91.4551-22.9492L74.1211-39.4531Q72.4121-41.0645 70.166-41.0645Q68.0176-41.0645 66.626-39.5996Q65.2344-38.1348 65.2344-35.8398Q65.2344-33.4473 66.9434-31.9824L72.3145-27.0996L77.4414-23.4863L67.5293-24.0234L47.4609-24.0234Q45.0195-24.0234 43.4082-22.29Q41.7969-20.5566 41.7969-18.0176Z"/>
  </g>
  <g id="Bold-L" transform="matrix(1 0 0 1 2257.21 1556)">
   <path d="M47.9492-73.3887L98.1934-73.3887Q101.514-73.3887 104.346-71.9482Q107.178-70.5078 108.887-67.6025Q110.596-64.6973 110.596-60.4004L110.596 12.5488L128.174 12.5488Q138.525 12.5488 143.994 7.03125Q149.463 1.51367 149.463-8.93555L149.463-94.8242Q149.463-105.225 143.994-110.742Q138.525-116.26 128.174-116.26L69.2871-116.26Q58.9355-116.26 53.4424-110.767Q47.9492-105.273 47.9492-94.8242ZM80.0781-97.168L80.0781-98.584Q80.0781-100 81.1523-101.416Q82.2266-102.832 84.5215-102.832L112.939-102.832Q115.186-102.832 116.284-101.416Q117.383-100 117.383-98.584L117.383-97.168Q117.383-95.5078 116.187-94.2139Q114.99-92.9199 112.939-92.9199L84.5215-92.9199Q82.4219-92.9199 81.25-94.2139Q80.0781-95.5078 80.0781-97.168ZM16.0645 24.2676Q16.0645 34.7168 21.5332 40.21Q27.002 45.7031 37.4023 45.7031L96.2891 45.7031Q106.641 45.7031 112.109 40.1855Q117.578 34.668 117.578 24.2676L117.578-61.6699Q117.578-72.1191 112.109-77.6123Q106.641-83.1055 96.2891-83.1055L37.4023-83.1055Q27.002-83.1055 21.5332-77.6123Q16.0645-72.1191 16.0645-61.6699ZM30.5176 22.8027L30.5176-60.2051Q30.5176-64.3555 32.6172-66.5283Q34.7168-68.7012 39.0137-68.7012L94.5801-68.7012Q98.9258-68.7012 101.025-66.5283Q103.125-64.3555 103.125-60.2051L103.125 22.8027Q103.125 26.9531 101.025 29.1016Q98.9258 31.25 94.5801 31.25L39.0137 31.25Q34.7168 31.25 32.6172 29.1016Q30.5176 26.9531 30.5176 22.8027ZM40.0391-18.6523Q40.0391-16.4551 41.4307-14.9902Q42.8223-13.5254 44.9707-13.5254L68.5547-13.5254L78.7598-13.9648L73.0957-9.52148L67.0898-3.95508Q65.625-2.68555 65.625-0.537109Q65.625 1.46484 66.8457 2.75879Q68.0664 4.05273 69.9707 4.05273Q71.9238 4.05273 73.3887 2.63672L91.0645-14.502Q92.9688-16.3086 92.9688-18.6523Q92.9688-20.9961 91.0645-22.8027L73.3887-39.9414Q71.9238-41.3086 69.9707-41.3086Q68.0664-41.3086 66.8457-40.0391Q65.625-38.7695 65.625-36.7676Q65.625-34.7168 67.0898-33.3984L72.998-27.7832L78.7598-23.291L68.5547-23.7793L44.9707-23.7793Q42.8223-23.7793 41.4307-22.3145Q40.0391-20.8496 40.0391-18.6523Z"/>
  </g>
  <g id="Semibold-L" transform="matrix(1 0 0 1 1961.5 1556)">
   <path d="M47.4609-75.0977L97.168-75.0977Q100.586-75.0977 103.564-73.6084Q106.543-72.1191 108.35-69.0918Q110.156-66.0645 110.156-61.5723L110.156 12.5488L127.051 12.5488Q137.109 12.5488 142.285 7.2998Q147.461 2.05078 147.461-8.00781L147.461-94.873Q147.461-104.932 142.285-110.181Q137.109-115.43 127.051-115.43L67.8711-115.43Q57.9102-115.43 52.6855-110.205Q47.4609-104.98 47.4609-94.873ZM78.7598-97.0215L78.7598-98.3887Q78.7598-99.7559 79.8096-101.05Q80.8594-102.344 83.0078-102.344L111.963-102.344Q114.062-102.344 115.112-101.05Q116.162-99.7559 116.162-98.3887L116.162-97.0215Q116.162-95.459 115.063-94.2627Q113.965-93.0664 111.963-93.0664L83.0078-93.0664Q80.957-93.0664 79.8584-94.2627Q78.7598-95.459 78.7598-97.0215ZM16.0645 24.2676Q16.0645 34.375 21.2402 39.624Q26.416 44.873 36.4746 44.873L95.7031 44.873Q105.713 44.873 110.889 39.5996Q116.064 34.3262 116.064 24.2676L116.064-62.5977Q116.064-72.6562 110.889-77.8809Q105.713-83.1055 95.7031-83.1055L36.4746-83.1055Q26.416-83.1055 21.2402-77.8809Q16.0645-72.6562 16.0645-62.5977ZM28.418 23.3398L28.418-61.5723Q28.418-66.0645 30.7129-68.4326Q33.0078-70.8008 37.6465-70.8008L94.4336-70.8008Q99.1211-70.8008 101.44-68.4326Q103.76-66.0645 103.76-61.5723L103.76 23.3398Q103.76 27.7832 101.44 30.1514Q99.1211 32.5195 94.4336 32.5195L37.6465 32.5195Q33.0078 32.5195 30.7129 30.1514Q28.418 27.7832 28.418 23.3398ZM38.8184-19.0918Q38.8184-17.1387 40.0635-15.8691Q41.3086-14.5996 43.2129-14.5996L69.2383-14.5996L79.6387-14.9902L73.4863-9.91211L67.1387-3.85742Q65.8203-2.68555 65.8203-0.830078Q65.8203 0.976562 66.9434 2.14844Q68.0664 3.32031 69.8242 3.32031Q71.582 3.32031 72.8516 2.09961L90.7715-15.4785Q92.4805-17.1387 92.4805-19.1406Q92.4805-21.0449 90.7715-22.7051L72.8516-40.2832Q71.582-41.5039 69.8242-41.5039Q68.0664-41.5039 66.9434-40.3564Q65.8203-39.209 65.8203-37.4023Q65.8203-35.5957 67.1387-34.375L73.4375-28.2715L79.6387-23.1934L69.2383-23.6328L43.2129-23.6328Q41.3086-23.6328 40.0635-22.3633Q38.8184-21.0938 38.8184-19.0918Z"/>
  </g>
  <g id="Medium-L" transform="matrix(1 0 0 1 1665.55 1556)">
   <path d="M47.0703-76.416L96.3867-76.416Q99.9023-76.416 102.979-74.8779Q106.055-73.3398 107.91-70.2393Q109.766-67.1387 109.766-62.4512L109.766 12.5L126.27 12.5Q135.986 12.5 140.967 7.4707Q145.947 2.44141 145.947-7.37305L145.947-94.9219Q145.947-104.736 140.967-109.79Q135.986-114.844 126.27-114.844L66.7969-114.844Q57.1289-114.844 52.0996-109.814Q47.0703-104.785 47.0703-94.9219ZM77.832-96.9238L77.832-98.1934Q77.832-99.6094 78.8086-100.781Q79.7852-101.953 81.8359-101.953L111.23-101.953Q113.232-101.953 114.233-100.781Q115.234-99.6094 115.234-98.1934L115.234-96.9238Q115.234-95.459 114.209-94.3115Q113.184-93.1641 111.23-93.1641L81.8359-93.1641Q79.8828-93.1641 78.8574-94.3115Q77.832-95.459 77.832-96.9238ZM16.0645 24.3164Q16.0645 34.1309 21.0449 39.1602Q26.0254 44.1895 35.791 44.1895L95.2637 44.1895Q104.98 44.1895 109.961 39.1357Q114.941 34.082 114.941 24.3164L114.941-63.2812Q114.941-73.0469 109.961-78.1006Q104.98-83.1543 95.2637-83.1543L35.791-83.1543Q26.0254-83.1543 21.0449-78.125Q16.0645-73.0957 16.0645-63.2812ZM26.8066 23.7305L26.8066-62.5977Q26.8066-67.3828 29.2725-69.8975Q31.7383-72.4121 36.6211-72.4121L94.3359-72.4121Q99.2676-72.4121 101.733-69.8975Q104.199-67.3828 104.199-62.5977L104.199 23.7305Q104.199 28.4668 101.733 30.957Q99.2676 33.4473 94.3359 33.4473L36.6211 33.4473Q31.7383 33.4473 29.2725 30.957Q26.8066 28.4668 26.8066 23.7305ZM37.8906-19.4336Q37.8906-17.6758 39.0137-16.5527Q40.1367-15.4297 41.8945-15.4297L69.7754-15.4297L80.2734-15.7715L73.8281-10.2539L67.2363-3.85742Q66.0156-2.73438 66.0156-1.02539Q66.0156 0.585938 67.0654 1.68457Q68.1152 2.7832 69.6777 2.7832Q71.2891 2.7832 72.4609 1.66016L90.5273-16.2598Q92.0898-17.7734 92.0898-19.4824Q92.0898-21.1426 90.5273-22.6562L72.4609-40.5762Q71.3379-41.6992 69.6777-41.6992Q68.1152-41.6992 67.0654-40.625Q66.0156-39.5508 66.0156-37.9395Q66.0156-36.3281 67.2363-35.1074L73.7793-28.7109L80.2734-23.1445L69.7754-23.5352L41.8945-23.5352Q40.1367-23.5352 39.0137-22.3877Q37.8906-21.2402 37.8906-19.4336Z"/>
  </g>
  <g id="Regular-L" transform="matrix(1 0 0 1 1369.82 1556)">
   <path d="M46.582-78.125L95.3613-78.125Q99.0234-78.125 102.222-76.5381Q105.42-74.9512 107.373-71.7285Q109.326-68.5059 109.326-63.623L109.326 12.5L125.195 12.5Q134.57 12.5 139.282 7.71484Q143.994 2.92969 143.994-6.49414L143.994-95.0195Q143.994-104.443 139.282-109.229Q134.57-114.014 125.195-114.014L65.4297-114.014Q56.1035-114.014 51.3428-109.253Q46.582-104.492 46.582-95.0195ZM76.5625-96.7773L76.5625-97.998Q76.5625-99.3652 77.4902-100.415Q78.418-101.465 80.3711-101.465L110.254-101.465Q112.158-101.465 113.086-100.415Q114.014-99.3652 114.014-97.998L114.014-96.7773Q114.014-95.4102 113.086-94.3604Q112.158-93.3105 110.254-93.3105L80.3711-93.3105Q78.418-93.3105 77.4902-94.3604Q76.5625-95.4102 76.5625-96.7773ZM16.0645 24.3652Q16.0645 33.8379 20.7764 38.5986Q25.4883 43.3594 34.8633 43.3594L94.6777 43.3594Q104.053 43.3594 108.765 38.5742Q113.477 33.7891 113.477 24.3652L113.477-64.1602Q113.477-73.584 108.765-78.3691Q104.053-83.1543 94.6777-83.1543L34.8633-83.1543Q25.4883-83.1543 20.7764-78.3936Q16.0645-73.6328 16.0645-64.1602ZM24.707 24.2188L24.707-63.9648Q24.707-69.0918 27.3926-71.8018Q30.0781-74.5117 35.3027-74.5117L94.1895-74.5117Q99.4629-74.5117 102.148-71.8018Q104.834-69.0918 104.834-63.9648L104.834 24.2188Q104.834 29.2969 102.148 32.0068Q99.4629 34.7168 94.1895 34.7168L35.3027 34.7168Q30.0781 34.7168 27.3926 32.0068Q24.707 29.2969 24.707 24.2188ZM36.7188-19.9219Q36.7188-18.4082 37.6953-17.4561Q38.6719-16.5039 40.1855-16.5039L70.5078-16.5039L81.2012-16.7969L74.2676-10.6445L67.334-3.80859Q66.2598-2.7832 66.2598-1.31836Q66.2598 0.0976562 67.2119 1.07422Q68.1641 2.05078 69.5801 2.05078Q70.9961 2.05078 71.9727 1.07422L90.2832-17.2852Q91.6016-18.6035 91.6016-19.9707Q91.6016-21.2402 90.2832-22.5586L71.9727-40.918Q71.0449-41.8945 69.5801-41.8945Q68.1641-41.8945 67.2119-40.9424Q66.2598-39.9902 66.2598-38.5742Q66.2598-37.207 67.334-36.084L74.2676-29.1992L81.2012-23.0469L70.5078-23.3887L40.1855-23.3887Q38.6719-23.3887 37.6953-22.4365Q36.7188-21.4844 36.7188-19.9219Z"/>
  </g>
  <g id="Light-L" transform="matrix(1 0 0 1 1073.69 1556)">
   <path d="M46.582-79.3457L95.8984-79.3457Q99.6094-79.3457 102.588-77.6855Q105.566-76.0254 107.324-72.876Q109.082-69.7266 109.082-65.2344L109.082 12.5488L124.951 12.5488Q133.789 12.5488 138.306 8.00781Q142.822 3.4668 142.822-5.41992L142.822-95.3125Q142.822-104.15 138.306-108.716Q133.789-113.281 124.951-113.281L64.4531-113.281Q55.6641-113.281 51.123-108.74Q46.582-104.199 46.582-95.3125ZM76.9043-96.8262L76.9043-97.9492Q76.9043-99.1699 77.7344-100.146Q78.5645-101.123 80.3711-101.123L109.033-101.123Q110.791-101.123 111.646-100.146Q112.5-99.1699 112.5-97.9492L112.5-96.8262Q112.5-95.6055 111.646-94.6533Q110.791-93.7012 109.033-93.7012L80.3711-93.7012Q78.5645-93.7012 77.7344-94.6533Q76.9043-95.6055 76.9043-96.8262ZM16.0645 24.707Q16.0645 33.5938 20.5566 38.1104Q25.0488 42.627 33.8867 42.627L94.4336 42.627Q103.32 42.627 107.812 38.0859Q112.305 33.5449 112.305 24.707L112.305-65.1855Q112.305-74.0723 107.812-78.6133Q103.32-83.1543 94.4336-83.1543L33.8867-83.1543Q25.0488-83.1543 20.5566-78.6377Q16.0645-74.1211 16.0645-65.1855ZM22.6562 24.5117L22.6562-65.0391Q22.6562-70.6543 25.5859-73.6084Q28.5156-76.5625 34.2285-76.5625L94.0918-76.5625Q99.8047-76.5625 102.734-73.6084Q105.664-70.6543 105.664-65.0391L105.664 24.5117Q105.664 30.127 102.734 33.0811Q99.8047 36.0352 94.0918 36.0352L34.2285 36.0352Q28.5156 36.0352 25.5859 33.0811Q22.6562 30.127 22.6562 24.5117ZM35.4004-20.2637Q35.4004-19.043 36.1816-18.2861Q36.9629-17.5293 38.1836-17.5293L72.7051-17.5293L82.5195-17.7734L75.1465-10.791L67.1875-2.88086Q66.2598-2.00195 66.2598-0.830078Q66.2598 0.292969 66.9922 1.0498Q67.7246 1.80664 68.8477 1.80664Q70.0195 1.80664 70.8008 0.976562L89.9902-18.2129Q91.0156-19.2383 91.0156-20.3125Q91.0156-21.3379 89.9902-22.3633L70.8008-41.5527Q70.0195-42.3828 68.8477-42.3828Q67.7246-42.3828 66.9922-41.626Q66.2598-40.8691 66.2598-39.7461Q66.2598-38.6719 67.1875-37.6953L75.1465-29.7363L82.5684-22.8027L72.7051-23.0469L38.1836-23.0469Q37.0117-23.0469 36.2061-22.29Q35.4004-21.5332 35.4004-20.2637Z"/>
  </g>
  <g id="Thin-L" transform="matrix(1 0 0 1 777.785 1556)">
   <path d="M46.5332-80.957L96.6309-80.957Q100.342-80.957 103.052-79.2236Q105.762-77.4902 107.251-74.4385Q108.74-71.3867 108.74-67.4316L108.74 12.6465L124.609 12.6465Q132.764 12.6465 136.987 8.42285Q141.211 4.19922 141.211-3.95508L141.211-95.6543Q141.211-103.809 136.987-108.032Q132.764-112.256 124.609-112.256L63.1348-112.256Q55.127-112.256 50.8301-108.032Q46.5332-103.809 46.5332-95.6543ZM77.2949-96.9238L77.2949-97.9492Q77.2949-98.9258 78.0518-99.7803Q78.8086-100.635 80.3223-100.635L107.422-100.635Q108.936-100.635 109.692-99.7803Q110.449-98.9258 110.449-97.9492L110.449-96.9238Q110.449-95.8984 109.692-95.0684Q108.936-94.2383 107.422-94.2383L80.3223-94.2383Q78.8086-94.2383 78.0518-95.0684Q77.2949-95.8984 77.2949-96.9238ZM16.0645 25.0977Q16.0645 33.252 20.2881 37.4756Q24.5117 41.6992 32.666 41.6992L94.1406 41.6992Q102.295 41.6992 106.519 37.4756Q110.742 33.252 110.742 25.0977L110.742-66.6016Q110.742-74.7559 106.519-78.9795Q102.295-83.2031 94.1406-83.2031L32.666-83.2031Q24.5117-83.2031 20.2881-78.9795Q16.0645-74.7559 16.0645-66.6016ZM20.0195 24.9023L20.0195-66.4062Q20.0195-72.7539 23.2666-76.001Q26.5137-79.248 32.8613-79.248L93.9453-79.248Q100.293-79.248 103.54-76.001Q106.787-72.7539 106.787-66.4062L106.787 24.9023Q106.787 31.25 103.54 34.5215Q100.293 37.793 93.9453 37.793L32.8613 37.793Q26.5137 37.793 23.2666 34.5215Q20.0195 31.25 20.0195 24.9023ZM33.6426-20.7031Q33.6426-19.9219 34.1553-19.4336Q34.668-18.9453 35.5469-18.9453L75.5859-18.9453L84.2773-19.0918L76.2695-11.0352L66.9434-1.70898Q66.2598-1.02539 66.2598-0.244141Q66.2598 0.439453 66.6992 0.927734Q67.1387 1.41602 67.9199 1.41602Q68.7012 1.41602 69.2871 0.830078L89.6484-19.4824Q90.2344-20.0684 90.2344-20.8008Q90.2344-21.4844 89.6484-22.1191L69.2871-42.4316Q68.6523-43.0176 67.9199-43.0176Q67.1387-43.0176 66.6992-42.5293Q66.2598-42.041 66.2598-41.3574Q66.2598-40.625 66.9434-39.8926L76.2695-30.5176L84.3262-22.4609L75.5859-22.6562L35.5469-22.6562Q34.7656-22.6562 34.2041-22.1436Q33.6426-21.6309 33.6426-20.7031Z"/>
  </g>
  <g id="Ultralight-L" transform="matrix(1 0 0 1 481.464 1556)">
   <path d="M46.5332-81.7383L96.9727-81.7383Q100.732-81.7383 103.296-79.9805Q105.859-78.2227 107.202-75.2197Q108.545-72.2168 108.545-68.5059L108.545 12.6953L124.463 12.6953Q132.275 12.6953 136.353 8.61816Q140.43 4.54102 140.43-3.22266L140.43-95.8496Q140.43-103.613 136.353-107.69Q132.275-111.768 124.463-111.768L62.5-111.768Q54.834-111.768 50.6836-107.69Q46.5332-103.613 46.5332-95.8496ZM77.5391-96.9727L77.5391-97.9004Q77.5391-98.8281 78.2227-99.6094Q78.9062-100.391 80.3223-100.391L106.641-100.391Q108.008-100.391 108.716-99.6094Q109.424-98.8281 109.424-97.9004L109.424-96.9727Q109.424-96.0449 108.716-95.2637Q108.008-94.4824 106.641-94.4824L80.3223-94.4824Q78.9062-94.4824 78.2227-95.2637Q77.5391-96.0449 77.5391-96.9727ZM16.0645 25.3418Q16.0645 33.0566 20.1416 37.1338Q24.2188 41.2109 31.9824 41.2109L93.9941 41.2109Q101.807 41.2109 105.859 37.1582Q109.912 33.1055 109.912 25.3418L109.912-67.2852Q109.912-75.0977 105.859-79.1504Q101.807-83.2031 93.9941-83.2031L31.9824-83.2031Q24.2188-83.2031 20.1416-79.1504Q16.0645-75.0977 16.0645-67.2852ZM18.6035 25.1465L18.6035-67.1387Q18.6035-73.8281 22.0215-77.2461Q25.4395-80.6641 32.1289-80.6641L93.8477-80.6641Q100.537-80.6641 103.955-77.2461Q107.373-73.8281 107.373-67.1387L107.373 25.1465Q107.373 31.8359 103.955 35.2539Q100.537 38.6719 93.8477 38.6719L32.1289 38.6719Q25.4395 38.6719 22.0215 35.2539Q18.6035 31.8359 18.6035 25.1465ZM32.7148-20.9473Q32.7148-20.4102 33.1055-20.0439Q33.4961-19.6777 34.1797-19.6777L77.0508-19.6777L85.1562-19.7266L76.8555-11.1816L66.7969-1.12305Q66.2109-0.488281 66.2109 0.0488281Q66.2109 0.585938 66.5283 0.927734Q66.8457 1.26953 67.3828 1.26953Q67.9688 1.26953 68.457 0.78125L89.4043-20.1172Q89.8438-20.5078 89.8438-21.0449Q89.8438-21.582 89.4043-22.0215L68.457-42.8711Q67.9688-43.3594 67.3828-43.3594Q66.8457-43.3594 66.5283-43.0176Q66.2109-42.6758 66.2109-42.1387Q66.2109-41.6016 66.7969-41.0156L76.8555-30.9082L85.2539-22.3145L77.0508-22.4121L34.1797-22.4121Q33.5938-22.4121 33.1543-22.0459Q32.7148-21.6797 32.7148-20.9473Z"/>
  </g>
  <g id="Black-M" transform="matrix(1 0 0 1 2866.26 1126)">
   <path d="M38.7695-59.6191L79.5898-59.6191Q81.7871-59.6191 83.4717-58.6182Q85.1562-57.6172 86.1328-55.7861Q87.1094-53.9551 87.1094-51.416L87.1094 1.85547L102.686 1.85547Q111.768 1.85547 116.797-3.17383Q121.826-8.20312 121.826-17.2852L121.826-81.25Q121.826-90.332 116.797-95.3613Q111.768-100.391 102.686-100.391L57.9102-100.391Q48.8281-100.391 43.7988-95.3613Q38.7695-90.332 38.7695-81.25ZM66.2598-83.6914L66.2598-85.0098Q66.2598-86.084 67.2607-87.5977Q68.2617-89.1113 70.3613-89.1113L90.2832-89.1113Q92.3828-89.1113 93.3838-87.5977Q94.3848-86.084 94.3848-85.0098L94.3848-83.6914Q94.3848-82.0801 93.1885-80.835Q91.9922-79.5898 90.2832-79.5898L70.3613-79.5898Q68.6035-79.5898 67.4316-80.835Q66.2598-82.0801 66.2598-83.6914ZM12.4512 10.8398Q12.4512 19.9219 17.4805 24.9512Q22.5098 29.9805 31.5918 29.9805L76.416 29.9805Q85.4492 29.9805 90.5029 24.9512Q95.5566 19.9219 95.5566 10.8398L95.5566-53.125Q95.5566-62.207 90.5029-67.2363Q85.4492-72.2656 76.416-72.2656L31.5918-72.2656Q22.5098-72.2656 17.4805-67.2363Q12.4512-62.207 12.4512-53.125ZM29.7852 8.20312L29.7852-50.4883Q29.7852-52.7344 30.8105-53.833Q31.8359-54.9316 34.2773-54.9316L73.7305-54.9316Q76.1719-54.9316 77.1729-53.833Q78.1738-52.7344 78.1738-50.4883L78.1738 8.20312Q78.1738 10.4492 77.1729 11.5479Q76.1719 12.6465 73.7305 12.6465L34.2773 12.6465Q31.8359 12.6465 30.8105 11.5479Q29.7852 10.4492 29.7852 8.20312ZM34.5215-21.0449Q34.5215-18.6523 36.0107-16.9922Q37.5-15.332 39.7949-15.332L51.5625-15.332L58.5938-15.8203L55.5664-14.0625L51.6113-10.8887Q50.0488-9.66797 50.0488-7.37305Q50.0488-5.22461 51.2695-3.90625Q52.4902-2.58789 54.4434-2.58789Q56.4941-2.58789 58.1543-4.10156L71.3867-16.2109Q73.4863-18.1152 73.4863-21.0449Q73.4863-23.9746 71.3867-25.8301L58.1543-37.9395Q56.4941-39.4531 54.4434-39.4531Q52.4902-39.4531 51.2695-38.1592Q50.0488-36.8652 50.0488-34.7168Q50.0488-32.4707 51.6113-31.2012L55.4199-28.0762L58.5938-26.2695L51.5625-26.7578L39.7949-26.7578Q37.5-26.7578 36.0107-25.0977Q34.5215-23.4375 34.5215-21.0449Z"/>
  </g>
  <g id="Heavy-M" transform="matrix(1 0 0 1 2570.67 1126)">
   <path d="M38.1348-61.5723L78.1738-61.5723Q80.5176-61.5723 82.4219-60.5225Q84.3262-59.4727 85.4492-57.4707Q86.5723-55.4688 86.5723-52.5879L86.5723 1.85547L101.367 1.85547Q110.107 1.85547 114.844-2.90527Q119.58-7.66602 119.58-16.4062L119.58-81.2988Q119.58-90.0391 114.844-94.7754Q110.107-99.5117 101.367-99.5117L56.3477-99.5117Q47.6074-99.5117 42.8711-94.7754Q38.1348-90.0391 38.1348-81.2988ZM64.5996-83.4961L64.5996-84.7656Q64.5996-85.8398 65.5273-87.207Q66.4551-88.5742 68.457-88.5742L89.3066-88.5742Q91.2598-88.5742 92.2119-87.207Q93.1641-85.8398 93.1641-84.7656L93.1641-83.4961Q93.1641-81.9824 92.0654-80.835Q90.9668-79.6875 89.3066-79.6875L68.457-79.6875Q66.748-79.6875 65.6738-80.835Q64.5996-81.9824 64.5996-83.4961ZM12.4512 10.8398Q12.4512 19.5801 17.1875 24.3164Q21.9238 29.0527 30.6641 29.0527L75.7324 29.0527Q84.4238 29.0527 89.1602 24.3164Q93.8965 19.5801 93.8965 10.8398L93.8965-54.0527Q93.8965-62.793 89.1602-67.5293Q84.4238-72.2656 75.7324-72.2656L30.6641-72.2656Q21.9238-72.2656 17.1875-67.5293Q12.4512-62.793 12.4512-54.0527ZM27.5391 8.78906L27.5391-52.002Q27.5391-54.5898 28.7842-55.8838Q30.0293-57.1777 32.7637-57.1777L73.584-57.1777Q76.3184-57.1777 77.5635-55.8838Q78.8086-54.5898 78.8086-52.002L78.8086 8.78906Q78.8086 11.377 77.5635 12.6709Q76.3184 13.9648 73.584 13.9648L32.7637 13.9648Q30.0293 13.9648 28.7842 12.6709Q27.5391 11.377 27.5391 8.78906ZM33.252-21.582Q33.252-19.4336 34.5947-17.9443Q35.9375-16.4551 37.9883-16.4551L52.002-16.4551L59.4238-16.9434L55.9082-14.5508L51.7578-11.0352Q50.3418-9.91211 50.3418-7.8125Q50.3418-5.9082 51.4648-4.6875Q52.5879-3.4668 54.3945-3.4668Q56.25-3.4668 57.7148-4.83398L71.0938-17.334Q72.9492-19.043 72.9492-21.582Q72.9492-24.0723 71.0938-25.7812L57.7148-38.2812Q56.25-39.6484 54.3945-39.6484Q52.5879-39.6484 51.4648-38.4521Q50.3418-37.2559 50.3418-35.3027Q50.3418-33.3008 51.7578-32.1289L55.8105-28.6133L59.4238-26.2207L52.002-26.6602L37.9883-26.6602Q35.9375-26.6602 34.5947-25.1953Q33.252-23.7305 33.252-21.582Z"/>
  </g>
  <g id="Bold-M" transform="matrix(1 0 0 1 2275.21 1126)">
   <path d="M37.4512-63.7207L76.6113-63.7207Q79.1016-63.7207 81.25-62.6221Q83.3984-61.5234 84.6924-59.3262Q85.9863-57.1289 85.9863-53.8574L85.9863 1.80664L99.9512 1.80664Q108.252 1.80664 112.671-2.63672Q117.09-7.08008 117.09-15.4297L117.09-81.3477Q117.09-89.6973 112.671-94.1406Q108.252-98.584 99.9512-98.584L54.5898-98.584Q46.2891-98.584 41.8701-94.1406Q37.4512-89.6973 37.4512-81.3477ZM62.7441-83.3008L62.7441-84.4727Q62.7441-85.5469 63.623-86.7432Q64.502-87.9395 66.3574-87.9395L88.2324-87.9395Q90.0391-87.9395 90.9424-86.7432Q91.8457-85.5469 91.8457-84.4727L91.8457-83.3008Q91.8457-81.9336 90.8447-80.8594Q89.8438-79.7852 88.2324-79.7852L66.3574-79.7852Q64.6484-79.7852 63.6963-80.8594Q62.7441-81.9336 62.7441-83.3008ZM12.4512 10.8398Q12.4512 19.1895 16.8701 23.6328Q21.2891 28.0762 29.5898 28.0762L74.9512 28.0762Q83.252 28.0762 87.6709 23.6328Q92.0898 19.1895 92.0898 10.8398L92.0898-55.0781Q92.0898-63.4277 87.6709-67.8711Q83.252-72.3145 74.9512-72.3145L29.5898-72.3145Q21.2891-72.3145 16.8701-67.8955Q12.4512-63.4766 12.4512-55.0781ZM25.0488 9.42383L25.0488-53.7109Q25.0488-56.6406 26.5381-58.1787Q28.0273-59.7168 31.1035-59.7168L73.4375-59.7168Q76.5137-59.7168 78.0029-58.1787Q79.4922-56.6406 79.4922-53.7109L79.4922 9.42383Q79.4922 12.4023 78.0029 13.9404Q76.5137 15.4785 73.4375 15.4785L31.1035 15.4785Q28.0273 15.4785 26.5381 13.9404Q25.0488 12.4023 25.0488 9.42383ZM31.8848-22.1191Q31.8848-20.2148 33.0566-18.9697Q34.2285-17.7246 36.084-17.7246L52.5391-17.7246L60.4004-18.1152L56.3477-15.0879L52.002-11.1328Q50.7324-10.1074 50.7324-8.30078Q50.7324-6.5918 51.7578-5.49316Q52.7832-4.39453 54.4434-4.39453Q56.0547-4.39453 57.3242-5.56641L70.8008-18.5059Q72.4121-20.0195 72.4121-22.1191Q72.4121-24.1699 70.8008-25.6836L57.3242-38.623Q56.1035-39.7949 54.4434-39.7949Q52.7832-39.7949 51.7578-38.7207Q50.7324-37.6465 50.7324-35.9375Q50.7324-34.1797 52.002-33.1055L56.25-29.1504L60.4004-26.0742L52.5391-26.5137L36.084-26.5137Q34.2773-26.5137 33.0811-25.2441Q31.8848-23.9746 31.8848-22.1191Z"/>
  </g>
  <g id="Semibold-M" transform="matrix(1 0 0 1 1979.38 1126)">
   <path d="M36.9629-65.2344L75.5371-65.2344Q78.125-65.2344 80.4199-64.0625Q82.7148-62.8906 84.1553-60.5957Q85.5957-58.3008 85.5957-54.7363L85.5957 1.80664L98.9258 1.80664Q106.982 1.80664 111.157-2.44141Q115.332-6.68945 115.332-14.7461L115.332-81.3477Q115.332-89.4531 111.157-93.6768Q106.982-97.9004 98.9258-97.9004L53.3691-97.9004Q45.3125-97.9004 41.1377-93.6768Q36.9629-89.4531 36.9629-81.3477ZM61.4258-83.1055L61.4258-84.2285Q61.4258-85.3516 62.2559-86.4258Q63.0859-87.5 64.8438-87.5L87.4512-87.5Q89.209-87.5 90.0391-86.4258Q90.8691-85.3516 90.8691-84.2285L90.8691-83.1055Q90.8691-81.8359 89.9658-80.835Q89.0625-79.834 87.4512-79.834L64.8438-79.834Q63.2324-79.834 62.3291-80.835Q61.4258-81.8359 61.4258-83.1055ZM12.4512 10.791Q12.4512 18.9453 16.626 23.1445Q20.8008 27.3438 28.8574 27.3438L74.4141 27.3438Q82.4707 27.3438 86.6455 23.1201Q90.8203 18.8965 90.8203 10.791L90.8203-55.8105Q90.8203-63.8672 86.6455-68.0908Q82.4707-72.3145 74.4141-72.3145L28.8574-72.3145Q20.8008-72.3145 16.626-68.1152Q12.4512-63.916 12.4512-55.8105ZM23.3398 9.86328L23.3398-54.8828Q23.3398-58.0566 24.9756-59.7656Q26.6113-61.4746 29.9316-61.4746L73.291-61.4746Q76.6602-61.4746 78.2959-59.7656Q79.9316-58.0566 79.9316-54.8828L79.9316 9.86328Q79.9316 13.0859 78.2959 14.7705Q76.6602 16.4551 73.291 16.4551L29.9316 16.4551Q26.6113 16.4551 24.9756 14.7705Q23.3398 13.0859 23.3398 9.86328ZM30.9082-22.5098Q30.9082-20.8008 31.958-19.7021Q33.0078-18.6035 34.668-18.6035L52.832-18.6035L61.0352-18.9453L56.5918-15.4785L52.0996-11.2305Q50.9766-10.2539 50.9766-8.64258Q50.9766-7.08008 51.9287-6.0791Q52.8809-5.07812 54.3945-5.07812Q55.8594-5.07812 56.9824-6.15234L70.5566-19.3359Q72.0215-20.752 72.0215-22.5098Q72.0215-24.2188 70.5566-25.6348L56.9824-38.8672Q55.9082-39.9414 54.3945-39.9414Q52.8809-39.9414 51.9287-38.9404Q50.9766-37.9395 50.9766-36.377Q50.9766-34.8145 52.0996-33.7891L56.543-29.541L61.0352-26.0254L52.832-26.416L34.668-26.416Q33.0566-26.416 31.9824-25.3174Q30.9082-24.2188 30.9082-22.5098Z"/>
  </g>
  <g id="Medium-M" transform="matrix(1 0 0 1 1683.32 1126)">
   <path d="M36.6211-66.3574L74.707-66.3574Q77.3926-66.3574 79.8096-65.1611Q82.2266-63.9648 83.7402-61.5723Q85.2539-59.1797 85.2539-55.4199L85.2539 1.75781L98.1445 1.75781Q106.006 1.75781 110.01-2.29492Q114.014-6.34766 114.014-14.2578L114.014-81.3477Q114.014-89.2578 110.01-93.3105Q106.006-97.3633 98.1445-97.3633L52.4414-97.3633Q44.6289-97.3633 40.625-93.335Q36.6211-89.3066 36.6211-81.3477ZM60.4492-83.0078L60.4492-84.082Q60.4492-85.2051 61.2549-86.2061Q62.0605-87.207 63.7695-87.207L86.8652-87.207Q88.5254-87.207 89.3555-86.2061Q90.1855-85.2051 90.1855-84.082L90.1855-83.0078Q90.1855-81.7871 89.3311-80.8594Q88.4766-79.9316 86.8652-79.9316L63.7695-79.9316Q62.1094-79.9316 61.2793-80.8594Q60.4492-81.7871 60.4492-83.0078ZM12.4512 10.791Q12.4512 18.7012 16.4551 22.7539Q20.459 26.8066 28.3203 26.8066L74.0234 26.8066Q81.8359 26.8066 85.8643 22.7539Q89.8926 18.7012 89.8926 10.791L89.8926-56.3477Q89.8926-64.209 85.8643-68.2861Q81.8359-72.3633 74.0234-72.3633L28.3203-72.3633Q20.459-72.3633 16.4551-68.3105Q12.4512-64.2578 12.4512-56.3477ZM22.0215 10.2051L22.0215-55.7617Q22.0215-59.1309 23.7793-60.9619Q25.5371-62.793 29.0527-62.793L73.1934-62.793Q76.709-62.793 78.4912-60.9619Q80.2734-59.1309 80.2734-55.7617L80.2734 10.2051Q80.2734 13.623 78.4912 15.4297Q76.709 17.2363 73.1934 17.2363L29.0527 17.2363Q25.5371 17.2363 23.7793 15.4297Q22.0215 13.623 22.0215 10.2051ZM30.1758-22.8027Q30.1758-21.2891 31.1523-20.2881Q32.1289-19.2871 33.6426-19.2871L53.125-19.2871L61.5234-19.5801L56.7871-15.7715L52.1973-11.3281Q51.1719-10.4004 51.1719-8.93555Q51.1719-7.4707 52.0508-6.51855Q52.9297-5.56641 54.3945-5.56641Q55.7617-5.56641 56.7871-6.54297L70.3613-19.9707Q71.6797-21.2891 71.6797-22.8027Q71.6797-24.3164 70.3613-25.5859L56.7871-39.0625Q55.8105-40.0391 54.3945-40.0391Q52.9297-40.0391 52.0508-39.1113Q51.1719-38.1836 51.1719-36.7188Q51.1719-35.3516 52.1973-34.3262L56.7383-29.834L61.5234-26.0254L53.125-26.3672L33.6426-26.3672Q32.1289-26.3672 31.1523-25.3662Q30.1758-24.3652 30.1758-22.8027Z"/>
  </g>
  <g id="Regular-M" transform="matrix(1 0 0 1 1387.47 1126)">
   <path d="M36.1328-67.8223L73.6328-67.8223Q76.416-67.8223 79.0039-66.6016Q81.5918-65.3809 83.2275-62.8418Q84.8633-60.3027 84.8633-56.2988L84.8633 1.75781L97.168 1.75781Q104.736 1.75781 108.521-2.09961Q112.305-5.95703 112.305-13.5742L112.305-81.3965Q112.305-89.0137 108.521-92.8711Q104.736-96.7285 97.168-96.7285L51.2695-96.7285Q43.7012-96.7285 39.917-92.8955Q36.1328-89.0625 36.1328-81.3965ZM59.1797-82.8613L59.1797-83.8867Q59.1797-85.0098 59.9365-85.8887Q60.6934-86.7676 62.3047-86.7676L86.1328-86.7676Q87.6953-86.7676 88.4766-85.8887Q89.2578-85.0098 89.2578-83.8867L89.2578-82.8613Q89.2578-81.7383 88.4766-80.8594Q87.6953-79.9805 86.1328-79.9805L62.3047-79.9805Q60.6934-79.9805 59.9365-80.8594Q59.1797-81.7383 59.1797-82.8613ZM12.4512 10.791Q12.4512 18.457 16.2354 22.29Q20.0195 26.123 27.5879 26.123L73.4863 26.123Q81.0547 26.123 84.8389 22.2656Q88.623 18.4082 88.623 10.791L88.623-57.0312Q88.623-64.6484 84.8389-68.5059Q81.0547-72.3633 73.4863-72.3633L27.5879-72.3633Q20.0195-72.3633 16.2354-68.5303Q12.4512-64.6973 12.4512-57.0312ZM20.3125 10.6445L20.3125-56.9336Q20.3125-60.5469 22.2412-62.5244Q24.1699-64.502 27.9297-64.502L73.0957-64.502Q76.8555-64.502 78.8086-62.5244Q80.7617-60.5469 80.7617-56.9336L80.7617 10.6445Q80.7617 14.3066 78.8086 16.2842Q76.8555 18.2617 73.0957 18.2617L27.9297 18.2617Q24.1699 18.2617 22.2412 16.2842Q20.3125 14.3066 20.3125 10.6445ZM29.1992-23.1934Q29.1992-21.8262 30.0537-20.9717Q30.9082-20.1172 32.2754-20.1172L53.418-20.1172L62.1582-20.4102L57.0312-16.1133L52.2949-11.377Q51.3672-10.5469 51.3672-9.22852Q51.3672-7.95898 52.1973-7.08008Q53.0273-6.20117 54.3457-6.20117Q55.5664-6.20117 56.4453-7.08008L70.1172-20.8008Q71.2891-21.9727 71.2891-23.1934Q71.2891-24.3652 70.1172-25.5371L56.4453-39.3066Q55.6152-40.1367 54.3457-40.1367Q53.0273-40.1367 52.1973-39.2822Q51.3672-38.4277 51.3672-37.1582Q51.3672-35.9375 52.2949-35.0098L57.0312-30.2246L62.1582-25.9277L53.418-26.2695L32.2754-26.2695Q30.957-26.2695 30.0781-25.415Q29.1992-24.5605 29.1992-23.1934Z"/>
  </g>
  <g id="Light-M" transform="matrix(1 0 0 1 1091.29 1126)">
   <path d="M36.1328-68.8965L74.1211-68.8965Q76.9531-68.8965 79.3457-67.627Q81.7383-66.3574 83.1787-63.8916Q84.6191-61.4258 84.6191-57.7637L84.6191 1.80664L96.9727 1.80664Q104.053 1.80664 107.642-1.83105Q111.23-5.46875 111.23-12.5977L111.23-81.6406Q111.23-88.7695 107.642-92.4072Q104.053-96.0449 96.9727-96.0449L50.3906-96.0449Q43.3105-96.0449 39.7217-92.4316Q36.1328-88.8184 36.1328-81.6406ZM59.4727-82.959L59.4727-83.8379Q59.4727-84.8633 60.1562-85.6445Q60.8398-86.4258 62.3047-86.4258L85.0586-86.4258Q86.4746-86.4258 87.1826-85.6445Q87.8906-84.8633 87.8906-83.8379L87.8906-82.959Q87.8906-81.9336 87.1826-81.1279Q86.4746-80.3223 85.0586-80.3223L62.3047-80.3223Q60.8398-80.3223 60.1562-81.1279Q59.4727-81.9336 59.4727-82.959ZM12.4512 11.084Q12.4512 18.2129 16.04 21.8506Q19.6289 25.4883 26.709 25.4883L73.291 25.4883Q80.3711 25.4883 83.96 21.8506Q87.5488 18.2129 87.5488 11.084L87.5488-57.959Q87.5488-65.0879 83.96-68.7256Q80.3711-72.3633 73.291-72.3633L26.709-72.3633Q19.6289-72.3633 16.04-68.75Q12.4512-65.1367 12.4512-57.959ZM18.5059 10.9375L18.5059-57.8613Q18.5059-61.9629 20.6543-64.1602Q22.8027-66.3574 27.002-66.3574L72.998-66.3574Q77.1973-66.3574 79.3457-64.1602Q81.4941-61.9629 81.4941-57.8613L81.4941 10.9375Q81.4941 15.0391 79.3457 17.2363Q77.1973 19.4336 72.998 19.4336L27.002 19.4336Q22.8027 19.4336 20.6543 17.2363Q18.5059 15.0391 18.5059 10.9375ZM28.0273-23.5352Q28.0273-22.4609 28.7109-21.7773Q29.3945-21.0938 30.5176-21.0938L55.3711-21.0938L63.3789-21.2891L57.8613-16.3086L52.1484-10.5957Q51.3672-9.86328 51.3672-8.83789Q51.3672-7.86133 52.0264-7.15332Q52.6855-6.44531 53.7109-6.44531Q54.6875-6.44531 55.4199-7.17773L69.873-21.6797Q70.8008-22.5586 70.8008-23.5352Q70.8008-24.4629 69.873-25.3906L55.4199-39.8926Q54.7363-40.5762 53.7109-40.5762Q52.6855-40.5762 52.0264-39.917Q51.3672-39.2578 51.3672-38.2324Q51.3672-37.2559 52.1484-36.4746L57.8613-30.7617L63.3789-25.7324L55.3711-25.9766L30.5176-25.9766Q29.4434-25.9766 28.7354-25.3174Q28.0273-24.6582 28.0273-23.5352Z"/>
  </g>
  <g id="Thin-M" transform="matrix(1 0 0 1 795.289 1126)">
   <path d="M36.084-70.3125L74.707-70.3125Q77.5879-70.3125 79.7607-68.9941Q81.9336-67.6758 83.1299-65.2832Q84.3262-62.8906 84.3262-59.7168L84.3262 1.85547L96.6797 1.85547Q103.125 1.85547 106.47-1.48926Q109.814-4.83398 109.814-11.3281L109.814-81.9824Q109.814-88.4277 106.47-91.7969Q103.125-95.166 96.6797-95.166L49.2188-95.166Q42.8223-95.166 39.4531-91.8213Q36.084-88.4766 36.084-81.9824ZM59.8633-83.0566L59.8633-83.8379Q59.8633-84.668 60.4492-85.3271Q61.0352-85.9863 62.2559-85.9863L83.5938-85.9863Q84.8145-85.9863 85.4248-85.3271Q86.0352-84.668 86.0352-83.8379L86.0352-83.0566Q86.0352-82.1777 85.4248-81.4941Q84.8145-80.8105 83.5938-80.8105L62.2559-80.8105Q61.0352-80.8105 60.4492-81.4941Q59.8633-82.1777 59.8633-83.0566ZM12.4512 11.4258Q12.4512 17.9199 15.7715 21.2646Q19.0918 24.6094 25.5859 24.6094L73.0469 24.6094Q79.4922 24.6094 82.8369 21.2646Q86.1816 17.9199 86.1816 11.4258L86.1816-59.2285Q86.1816-65.7227 82.8369-69.0674Q79.4922-72.4121 73.0469-72.4121L25.5859-72.4121Q19.0918-72.4121 15.7715-69.0674Q12.4512-65.7227 12.4512-59.2285ZM16.1133 11.3281L16.1133-59.1309Q16.1133-63.8672 18.5303-66.3086Q20.9473-68.75 25.7324-68.75L72.8516-68.75Q77.6367-68.75 80.0781-66.3086Q82.5195-63.8672 82.5195-59.1309L82.5195 11.3281Q82.5195 16.0645 80.0781 18.5059Q77.6367 20.9473 72.8516 20.9473L25.7324 20.9473Q20.9473 20.9473 18.5303 18.5059Q16.1133 16.0645 16.1133 11.3281ZM26.416-23.877Q26.416-23.1934 26.8555-22.7539Q27.2949-22.3145 28.0762-22.3145L57.959-22.3145L64.8926-22.4121L58.8379-16.4551L51.9043-9.52148Q51.2695-8.93555 51.2695-8.25195Q51.2695-7.61719 51.709-7.17773Q52.1484-6.73828 52.832-6.73828Q53.4668-6.73828 54.0039-7.22656L69.5312-22.7539Q70.0684-23.291 70.0684-23.9258Q70.0684-24.5605 69.5312-25.0977L54.0039-40.625Q53.4668-41.1621 52.832-41.1621Q52.1484-41.1621 51.709-40.6982Q51.2695-40.2344 51.2695-39.5996Q51.2695-39.0137 51.9043-38.3789L58.8379-31.3965L64.9414-25.3906L57.959-25.5371L28.0762-25.5371Q27.3438-25.5371 26.8799-25.1221Q26.416-24.707 26.416-23.877Z"/>
  </g>
  <g id="Ultralight-M" transform="matrix(1 0 0 1 498.945 1126)">
   <path d="M36.084-71.0449L75.0488-71.0449Q77.9785-71.0449 80.0049-69.6777Q82.0312-68.3105 83.1055-65.9912Q84.1797-63.6719 84.1797-60.6934L84.1797 1.9043L96.5332 1.9043Q102.637 1.9043 105.859-1.29395Q109.082-4.49219 109.082-10.6445L109.082-82.1289Q109.082-88.2812 105.859-91.4795Q102.637-94.6777 96.5332-94.6777L48.6328-94.6777Q42.5781-94.6777 39.3311-91.4795Q36.084-88.2812 36.084-82.1289ZM60.0586-83.1055L60.0586-83.7891Q60.0586-84.5703 60.5957-85.1807Q61.1328-85.791 62.2559-85.791L82.8613-85.791Q83.9844-85.791 84.5459-85.1807Q85.1074-84.5703 85.1074-83.7891L85.1074-83.1055Q85.1074-82.3242 84.5459-81.6895Q83.9844-81.0547 82.8613-81.0547L62.2559-81.0547Q61.1328-81.0547 60.5957-81.6895Q60.0586-82.3242 60.0586-83.1055ZM12.4512 11.6211Q12.4512 17.7734 15.6494 20.9717Q18.8477 24.1699 25 24.1699L72.9004 24.1699Q79.0527 24.1699 82.251 20.9717Q85.4492 17.7734 85.4492 11.6211L85.4492-59.8633Q85.4492-66.0156 82.251-69.2139Q79.0527-72.4121 72.9004-72.4121L25-72.4121Q18.8477-72.4121 15.6494-69.2139Q12.4512-66.0156 12.4512-59.8633ZM14.8438 11.5234L14.8438-59.7656Q14.8438-64.7949 17.4316-67.4072Q20.0195-70.0195 25.0977-70.0195L72.7539-70.0195Q77.832-70.0195 80.4199-67.4072Q83.0078-64.7949 83.0078-59.7656L83.0078 11.5234Q83.0078 16.5527 80.4199 19.165Q77.832 21.7773 72.7539 21.7773L25.0977 21.7773Q20.0195 21.7773 17.4316 19.165Q14.8438 16.5527 14.8438 11.5234ZM25.6348-24.1211Q25.6348-23.6328 25.9766-23.3154Q26.3184-22.998 26.9043-22.998L59.2773-22.998L65.7227-22.998L59.4238-16.6016L51.8066-8.98438Q51.3184-8.49609 51.3184-8.00781Q51.3184-7.56836 51.6113-7.22656Q51.9043-6.88477 52.3926-6.88477Q52.9297-6.88477 53.3203-7.32422L69.3848-23.3887Q69.7266-23.7305 69.7266-24.1699Q69.7266-24.6582 69.3848-25L53.3203-41.0156Q52.8809-41.4551 52.3926-41.4551Q51.9043-41.4551 51.6113-41.1377Q51.3184-40.8203 51.3184-40.3809Q51.3184-39.8926 51.8066-39.4043L59.4238-31.7871L65.7715-25.293L59.2773-25.3906L26.9043-25.3906Q26.3672-25.3906 26.001-25.0732Q25.6348-24.7559 25.6348-24.1211Z"/>
  </g>
  <g id="Black-S" transform="matrix(1 0 0 1 2880.47 696)">
   <path d="M30.5664-53.8086L62.8418-53.8086Q65.332-53.8086 66.8701-52.124Q68.4082-50.4395 68.4082-47.6562L68.4082-6.15234L80.8594-6.15234Q88.0371-6.15234 92.0654-10.1807Q96.0938-14.209 96.0938-21.3867L96.0938-71.2891Q96.0938-78.4668 92.0654-82.4951Q88.0371-86.5234 80.8594-86.5234L45.8008-86.5234Q38.623-86.5234 34.5947-82.4951Q30.5664-78.4668 30.5664-71.2891ZM52.4414-73.2422L52.4414-74.3164Q52.4414-75.1465 53.2471-76.3672Q54.0527-77.5879 55.7129-77.5879L70.9961-77.5879Q72.6562-77.5879 73.4619-76.3672Q74.2676-75.1465 74.2676-74.3164L74.2676-73.2422Q74.2676-71.9727 73.291-70.9717Q72.3145-69.9707 70.9961-69.9707L55.7129-69.9707Q54.3457-69.9707 53.3936-70.9717Q52.4414-71.9727 52.4414-73.2422ZM9.76562 0.878906Q9.76562 8.05664 13.7939 12.085Q17.8223 16.1133 25 16.1133L60.0586 16.1133Q67.2363 16.1133 71.2646 12.085Q75.293 8.05664 75.293 0.878906L75.293-49.0234Q75.293-56.2012 71.2646-60.2295Q67.2363-64.2578 60.0586-64.2578L25-64.2578Q17.8223-64.2578 13.7939-60.2295Q9.76562-56.2012 9.76562-49.0234ZM23.9258-1.36719L23.9258-46.7773Q23.9258-48.4863 24.6826-49.292Q25.4395-50.0977 27.2461-50.0977L57.8125-50.0977Q59.668-50.0977 60.4004-49.292Q61.1328-48.4863 61.1328-46.7773L61.1328-1.36719Q61.1328 0.292969 60.4004 1.12305Q59.668 1.95312 57.8125 1.95312L27.2461 1.95312Q25.4395 1.95312 24.6826 1.12305Q23.9258 0.292969 23.9258-1.36719ZM27.3438-23.9746Q27.3438-22.0215 28.5645-20.6787Q29.7852-19.3359 31.5918-19.3359L40.3809-19.3359L45.7031-19.7266L43.457-18.5059L40.3809-16.0645Q39.1113-15.0879 39.1113-13.2324Q39.1113-11.5234 40.0879-10.4736Q41.0645-9.42383 42.627-9.42383Q44.2383-9.42383 45.6055-10.6445L56.0059-20.0684Q57.666-21.582 57.666-23.9746Q57.666-26.3672 56.0059-27.8809L45.6055-37.3047Q44.2383-38.5254 42.627-38.5254Q41.0645-38.5254 40.0879-37.4756Q39.1113-36.4258 39.1113-34.7168Q39.1113-32.9102 40.3809-31.8848L43.3105-29.4922L45.7031-28.2227L40.3809-28.6133L31.5918-28.6133Q29.7852-28.6133 28.5645-27.2705Q27.3438-25.9277 27.3438-23.9746Z"/>
  </g>
  <g id="Heavy-S" transform="matrix(1 0 0 1 2584.66 696)">
   <path d="M30.0293-55.3223L61.5723-55.3223Q64.2578-55.3223 66.1133-53.54Q67.9688-51.7578 67.9688-48.4375L67.9688-6.20117L79.7852-6.20117Q86.7188-6.20117 90.5029-10.0098Q94.2871-13.8184 94.2871-20.752L94.2871-71.2891Q94.2871-78.2227 90.5029-82.0557Q86.7188-85.8887 79.7852-85.8887L44.5801-85.8887Q37.6465-85.8887 33.8379-82.0801Q30.0293-78.2715 30.0293-71.2891ZM50.9766-73.0469L50.9766-74.1211Q50.9766-74.9512 51.7334-76.0498Q52.4902-77.1484 54.1016-77.1484L70.3125-77.1484Q71.875-77.1484 72.6318-76.0498Q73.3887-74.9512 73.3887-74.1211L73.3887-73.0469Q73.3887-71.875 72.5098-70.9473Q71.6309-70.0195 70.3125-70.0195L54.1016-70.0195Q52.7344-70.0195 51.8555-70.9473Q50.9766-71.875 50.9766-73.0469ZM9.76562 0.830078Q9.76562 7.8125 13.5742 11.6211Q17.3828 15.4297 24.3164 15.4297L59.4727 15.4297Q66.4062 15.4297 70.2148 11.5967Q74.0234 7.76367 74.0234 0.830078L74.0234-49.707Q74.0234-56.6406 70.2148-60.4492Q66.4062-64.2578 59.4727-64.2578L24.3164-64.2578Q17.3828-64.2578 13.5742-60.4492Q9.76562-56.6406 9.76562-49.707ZM22.2656-0.927734L22.2656-47.9492Q22.2656-49.9023 23.1689-50.8545Q24.0723-51.8066 26.0742-51.8066L57.7148-51.8066Q59.7656-51.8066 60.6445-50.8545Q61.5234-49.9023 61.5234-47.9492L61.5234-0.927734Q61.5234 0.976562 60.6445 1.95312Q59.7656 2.92969 57.7148 2.92969L26.0742 2.92969Q24.0723 2.92969 23.1689 1.95312Q22.2656 0.976562 22.2656-0.927734ZM26.416-24.3652Q26.416-22.5586 27.5391-21.3623Q28.6621-20.166 30.2734-20.166L40.4785-20.166L46.2891-20.5078L43.6523-18.8477L40.5273-16.2598Q39.3555-15.332 39.3555-13.623Q39.3555-12.0605 40.2832-11.084Q41.2109-10.1074 42.6758-10.1074Q44.1406-10.1074 45.3613-11.1816L55.7617-20.8496Q57.2754-22.2656 57.2754-24.3652Q57.2754-26.416 55.7617-27.832L45.3613-37.5Q44.1895-38.5742 42.6758-38.5742Q41.2109-38.5742 40.2832-37.5977Q39.3555-36.6211 39.3555-35.0586Q39.3555-33.3984 40.5273-32.4219L43.5547-29.834L46.2402-28.1738L40.4785-28.5156L30.2734-28.5156Q28.6621-28.5156 27.5391-27.3193Q26.416-26.123 26.416-24.3652Z"/>
  </g>
  <g id="Bold-S" transform="matrix(1 0 0 1 2288.93 696)">
   <path d="M29.4434-57.0312L60.1562-57.0312Q63.0371-57.0312 65.2832-55.127Q67.5293-53.2227 67.5293-49.3652L67.5293-6.25L78.5645-6.25Q85.2051-6.25 88.7695-9.81445Q92.334-13.3789 92.334-20.0684L92.334-71.2891Q92.334-77.9785 88.7695-81.5674Q85.2051-85.1562 78.5645-85.1562L43.2129-85.1562Q36.5234-85.1562 32.9834-81.5918Q29.4434-78.0273 29.4434-71.2891ZM49.3652-72.9004L49.3652-73.877Q49.3652-74.7559 50.0732-75.7324Q50.7812-76.709 52.2949-76.709L69.5312-76.709Q70.9961-76.709 71.7285-75.7324Q72.4609-74.7559 72.4609-73.877L72.4609-72.9004Q72.4609-71.7773 71.6553-70.9229Q70.8496-70.0684 69.5312-70.0684L52.2949-70.0684Q50.9277-70.0684 50.1465-70.9229Q49.3652-71.7773 49.3652-72.9004ZM9.76562 0.78125Q9.76562 7.51953 13.3057 11.084Q16.8457 14.6484 23.5352 14.6484L58.8867 14.6484Q65.5273 14.6484 69.0918 11.0596Q72.6562 7.4707 72.6562 0.78125L72.6562-50.4395Q72.6562-57.1289 69.0918-60.7178Q65.5273-64.3066 58.8867-64.3066L23.5352-64.3066Q16.8457-64.3066 13.3057-60.7422Q9.76562-57.1777 9.76562-50.4395ZM20.3613-0.390625L20.3613-49.2676Q20.3613-51.4648 21.46-52.5879Q22.5586-53.7109 24.8047-53.7109L57.5684-53.7109Q59.9121-53.7109 60.9619-52.5879Q62.0117-51.4648 62.0117-49.2676L62.0117-0.390625Q62.0117 1.75781 60.9619 2.90527Q59.9121 4.05273 57.5684 4.05273L24.8047 4.05273Q22.5586 4.05273 21.46 2.90527Q20.3613 1.75781 20.3613-0.390625ZM25.3906-24.8047Q25.3906-23.1934 26.3916-22.1436Q27.3926-21.0938 28.8574-21.0938L40.625-21.0938L46.9238-21.4355L43.8965-19.2871L40.7227-16.4551Q39.6973-15.625 39.6973-14.1113Q39.6973-12.6953 40.5518-11.792Q41.4062-10.8887 42.7734-10.8887Q44.0918-10.8887 45.166-11.8652L55.5176-21.7773Q56.8848-23.0469 56.8848-24.8047Q56.8848-26.4648 55.5176-27.7832L45.166-37.6953Q44.1406-38.6719 42.7734-38.6719Q41.4062-38.6719 40.5518-37.7686Q39.6973-36.8652 39.6973-35.4492Q39.6973-33.9844 40.7227-33.1055L43.7988-30.2734L46.9238-28.125L40.625-28.4668L28.8574-28.4668Q27.3926-28.4668 26.3916-27.417Q25.3906-26.3672 25.3906-24.8047Z"/>
  </g>
  <g id="Semibold-S" transform="matrix(1 0 0 1 1992.92 696)">
   <path d="M29.0527-58.1543L59.1797-58.1543Q62.207-58.1543 64.6973-56.2012Q67.1875-54.248 67.1875-49.9512L67.1875-6.25L77.6855-6.25Q84.1797-6.25 87.5488-9.64355Q90.918-13.0371 90.918-19.5801L90.918-71.2891Q90.918-77.7832 87.5488-81.2012Q84.1797-84.6191 77.6855-84.6191L42.2363-84.6191Q35.7422-84.6191 32.3975-81.2256Q29.0527-77.832 29.0527-71.2891ZM48.1934-72.7539L48.1934-73.6816Q48.1934-74.5605 48.9014-75.4639Q49.6094-76.3672 51.0254-76.3672L68.9453-76.3672Q70.4102-76.3672 71.0938-75.4639Q71.7773-74.5605 71.7773-73.6816L71.7773-72.7539Q71.7773-71.7285 71.0205-70.8984Q70.2637-70.0684 68.9453-70.0684L51.0254-70.0684Q49.707-70.0684 48.9502-70.8984Q48.1934-71.7285 48.1934-72.7539ZM9.76562 0.732422Q9.76562 7.27539 13.1348 10.6689Q16.5039 14.0625 22.9492 14.0625L58.4473 14.0625Q64.8926 14.0625 68.2861 10.6689Q71.6797 7.27539 71.6797 0.732422L71.6797-50.9766Q71.6797-57.4707 68.2861-60.8887Q64.8926-64.3066 58.4473-64.3066L22.9492-64.3066Q16.5039-64.3066 13.1348-60.9131Q9.76562-57.5195 9.76562-50.9766ZM19.043-0.0488281L19.043-50.1953Q19.043-52.5391 20.2637-53.7598Q21.4844-54.9805 23.9258-54.9805L57.4707-54.9805Q59.9609-54.9805 61.1572-53.7598Q62.3535-52.5391 62.3535-50.1953L62.3535-0.0488281Q62.3535 2.29492 61.1572 3.54004Q59.9609 4.78516 57.4707 4.78516L23.9258 4.78516Q21.4844 4.78516 20.2637 3.54004Q19.043 2.29492 19.043-0.0488281ZM24.6582-25.0977Q24.6582-23.6328 25.5615-22.7051Q26.4648-21.7773 27.832-21.7773L40.6738-21.7773L47.3633-22.0703L43.9941-19.5801L40.7715-16.6016Q39.8438-15.8203 39.8438-14.4531Q39.8438-13.1348 40.6738-12.2803Q41.5039-11.4258 42.7734-11.4258Q43.9941-11.4258 44.9707-12.3047L55.3223-22.4121Q56.5918-23.584 56.5918-25.0977Q56.5918-26.5137 55.3223-27.7344L44.9707-37.8418Q44.043-38.7207 42.7734-38.7207Q41.5039-38.7207 40.6738-37.8906Q39.8438-37.0605 39.8438-35.6934Q39.8438-34.4238 40.7715-33.5449L43.9453-30.5664L47.3145-28.0762L40.6738-28.418L27.832-28.418Q26.4648-28.418 25.5615-27.4658Q24.6582-26.5137 24.6582-25.0977Z"/>
  </g>
  <g id="Medium-S" transform="matrix(1 0 0 1 1696.73 696)">
   <path d="M28.7109-59.0332L58.4473-59.0332Q61.5723-59.0332 64.2578-57.0068Q66.9434-54.9805 66.9434-50.4395L66.9434-6.25L77.0508-6.25Q83.3984-6.25 86.6455-9.52148Q89.8926-12.793 89.8926-19.2383L89.8926-71.2891Q89.8926-77.6855 86.6455-80.957Q83.3984-84.2285 77.0508-84.2285L41.5039-84.2285Q35.1562-84.2285 31.9336-80.957Q28.7109-77.6855 28.7109-71.2891ZM47.3633-72.6562L47.3633-73.5352Q47.3633-74.4629 48.0225-75.293Q48.6816-76.123 50.0488-76.123L68.5547-76.123Q69.9219-76.123 70.5811-75.293Q71.2402-74.4629 71.2402-73.5352L71.2402-72.6562Q71.2402-71.6309 70.5566-70.8496Q69.873-70.0684 68.5547-70.0684L50.0488-70.0684Q48.7305-70.0684 48.0469-70.8496Q47.3633-71.6309 47.3633-72.6562ZM9.76562 0.732422Q9.76562 7.12891 12.9883 10.4004Q16.2109 13.6719 22.5586 13.6719L58.1055 13.6719Q64.4531 13.6719 67.7002 10.376Q70.9473 7.08008 70.9473 0.732422L70.9473-51.3672Q70.9473-57.7148 67.7002-61.0107Q64.4531-64.3066 58.1055-64.3066L22.5586-64.3066Q16.2109-64.3066 12.9883-61.0352Q9.76562-57.7637 9.76562-51.3672ZM18.0664 0.244141L18.0664-50.8789Q18.0664-53.3203 19.3604-54.6631Q20.6543-56.0059 23.2422-56.0059L57.4219-56.0059Q60.0098-56.0059 61.3037-54.6631Q62.5977-53.3203 62.5977-50.8789L62.5977 0.244141Q62.5977 2.68555 61.3037 4.02832Q60.0098 5.37109 57.4219 5.37109L23.2422 5.37109Q20.6543 5.37109 19.3604 4.02832Q18.0664 2.68555 18.0664 0.244141ZM24.1211-25.293Q24.1211-23.9746 24.9512-23.0957Q25.7812-22.2168 27.0996-22.2168L40.7715-22.2168L47.7051-22.5586L44.1406-19.8242L40.8691-16.748Q39.9902-15.9668 39.9902-14.6973Q39.9902-13.4766 40.7959-12.6465Q41.6016-11.8164 42.8223-11.8164Q43.9941-11.8164 44.8242-12.6465L55.1758-22.8516Q56.3477-24.0234 56.3477-25.293Q56.3477-26.5625 55.1758-27.6855L44.8242-37.9883Q44.043-38.7207 42.8223-38.7207Q41.6016-38.7207 40.7959-37.9395Q39.9902-37.1582 39.9902-35.8887Q39.9902-34.668 40.8691-33.8867L44.0918-30.7617L47.6562-28.0273L40.7715-28.3691L27.0996-28.3691Q25.7812-28.3691 24.9512-27.4902Q24.1211-26.6113 24.1211-25.293Z"/>
  </g>
  <g id="Regular-S" transform="matrix(1 0 0 1 1400.7 696)">
   <path d="M28.3203-60.2051L57.4707-60.2051Q60.7422-60.2051 63.6719-58.1055Q66.6016-56.0059 66.6016-51.0254L66.6016-6.29883L76.2207-6.29883Q82.373-6.29883 85.4492-9.39941Q88.5254-12.5 88.5254-18.75L88.5254-71.2891Q88.5254-77.4902 85.4492-80.6152Q82.373-83.7402 76.2207-83.7402L40.5762-83.7402Q34.4238-83.7402 31.3721-80.6396Q28.3203-77.5391 28.3203-71.2891ZM46.2402-72.5098L46.2402-73.3887Q46.2402-74.3164 46.875-75.0488Q47.5098-75.7812 48.8281-75.7812L68.0176-75.7812Q69.3359-75.7812 69.9707-75.0488Q70.6055-74.3164 70.6055-73.3887L70.6055-72.5098Q70.6055-71.582 69.9707-70.8496Q69.3359-70.1172 68.0176-70.1172L48.8281-70.1172Q47.5098-70.1172 46.875-70.8496Q46.2402-71.582 46.2402-72.5098ZM9.76562 0.683594Q9.76562 6.93359 12.8174 10.0342Q15.8691 13.1348 22.0215 13.1348L57.666 13.1348Q63.8184 13.1348 66.8945 10.0098Q69.9707 6.88477 69.9707 0.683594L69.9707-51.8555Q69.9707-58.0566 66.8945-61.1816Q63.8184-64.3066 57.666-64.3066L22.0215-64.3066Q15.8691-64.3066 12.8174-61.2061Q9.76562-58.1055 9.76562-51.8555ZM16.7969 0.585938L16.7969-51.7578Q16.7969-54.3945 18.2129-55.835Q19.6289-57.2754 22.3633-57.2754L57.3242-57.2754Q60.1074-57.2754 61.499-55.835Q62.8906-54.3945 62.8906-51.7578L62.8906 0.585938Q62.8906 3.22266 61.499 4.66309Q60.1074 6.10352 57.3242 6.10352L22.3633 6.10352Q19.6289 6.10352 18.2129 4.66309Q16.7969 3.22266 16.7969 0.585938ZM23.4375-25.6348Q23.4375-24.4141 24.1943-23.6572Q24.9512-22.9004 26.123-22.9004L40.8691-22.9004L48.1445-23.1934L44.2871-20.1172L41.0156-16.8945Q40.2344-16.1621 40.2344-15.0391Q40.2344-13.916 40.9912-13.1348Q41.748-12.3535 42.8711-12.3535Q43.9453-12.3535 44.6777-13.0859L55.0293-23.4863Q56.1035-24.5605 56.1035-25.6348Q56.1035-26.6113 55.0293-27.6855L44.6777-38.1348Q43.9941-38.8184 42.8711-38.8184Q41.748-38.8184 40.9912-38.0859Q40.2344-37.3535 40.2344-36.1816Q40.2344-35.1074 41.0156-34.3262L44.2871-31.0547L48.0957-28.0273L40.8691-28.3203L26.123-28.3203Q24.9512-28.3203 24.1943-27.5635Q23.4375-26.8066 23.4375-25.6348Z"/>
  </g>
  <g id="Light-S" transform="matrix(1 0 0 1 1104.48 696)">
   <path d="M28.3203-61.1816L57.9102-61.1816Q61.1816-61.1816 63.7939-59.0088Q66.4062-56.8359 66.4062-52.3438L66.4062-6.25L76.0254-6.25Q81.7871-6.25 84.668-9.15527Q87.5488-12.0605 87.5488-17.8711L87.5488-71.4844Q87.5488-77.2949 84.668-80.2246Q81.7871-83.1543 76.0254-83.1543L39.7949-83.1543Q34.082-83.1543 31.2012-80.2246Q28.3203-77.2949 28.3203-71.4844ZM46.4844-72.5586L46.4844-73.3398Q46.4844-74.1699 47.0459-74.8291Q47.6074-75.4883 48.8281-75.4883L67.041-75.4883Q68.2129-75.4883 68.7988-74.8291Q69.3848-74.1699 69.3848-73.3398L69.3848-72.5586Q69.3848-71.7285 68.7988-71.0938Q68.2129-70.459 67.041-70.459L48.8281-70.459Q47.6074-70.459 47.0459-71.0938Q46.4844-71.7285 46.4844-72.5586ZM9.76562 0.927734Q9.76562 6.73828 12.6465 9.64355Q15.5273 12.5488 21.2891 12.5488L57.5195 12.5488Q63.2324 12.5488 66.1377 9.61914Q69.043 6.68945 69.043 0.927734L69.043-52.6855Q69.043-58.4473 66.1377-61.377Q63.2324-64.3066 57.5195-64.3066L21.2891-64.3066Q15.5273-64.3066 12.6465-61.4014Q9.76562-58.4961 9.76562-52.6855ZM15.1855 0.830078L15.1855-52.5879Q15.1855-55.6641 16.7969-57.2754Q18.4082-58.8867 21.5332-58.8867L57.2266-58.8867Q60.4004-58.8867 61.9873-57.2754Q63.5742-55.6641 63.5742-52.5879L63.5742 0.830078Q63.5742 3.90625 61.9873 5.51758Q60.4004 7.12891 57.2266 7.12891L21.5332 7.12891Q18.4082 7.12891 16.7969 5.51758Q15.1855 3.90625 15.1855 0.830078ZM22.3633-25.9277Q22.3633-24.9512 22.9736-24.3408Q23.584-23.7305 24.5117-23.7305L42.5781-23.7305L49.1699-23.9746L44.9707-20.2637L40.8691-16.2109Q40.1855-15.5762 40.1855-14.6973Q40.1855-13.8184 40.7959-13.1836Q41.4062-12.5488 42.2852-12.5488Q43.1152-12.5488 43.75-13.1836L54.7852-24.2676Q55.6152-25.0488 55.6152-25.9277Q55.6152-26.709 54.7852-27.5391L43.75-38.623Q43.1641-39.209 42.2852-39.209Q41.4062-39.209 40.7959-38.623Q40.1855-38.0371 40.1855-37.1582Q40.1855-36.2793 40.8691-35.5957L44.9707-31.4941L49.1211-27.832L42.5781-28.0762L24.5117-28.0762Q23.584-28.0762 22.9736-27.4658Q22.3633-26.8555 22.3633-25.9277Z"/>
  </g>
  <g id="Thin-S" transform="matrix(1 0 0 1 808.375 696)">
   <path d="M28.2715-62.4023L58.4473-62.4023Q61.8164-62.4023 63.9893-60.1562Q66.1621-57.9102 66.1621-54.0527L66.1621-6.20117L75.7812-6.20117Q80.957-6.20117 83.6426-8.8623Q86.3281-11.5234 86.3281-16.748L86.3281-71.7773Q86.3281-77.002 83.6426-79.6631Q80.957-82.3242 75.7812-82.3242L38.7695-82.3242Q33.6426-82.3242 30.957-79.6631Q28.2715-77.002 28.2715-71.7773ZM46.8262-72.6562L46.8262-73.3398Q46.8262-74.0234 47.3145-74.5605Q47.8027-75.0977 48.7793-75.0977L65.8203-75.0977Q66.748-75.0977 67.2607-74.5605Q67.7734-74.0234 67.7734-73.3398L67.7734-72.6562Q67.7734-71.9727 67.2607-71.4111Q66.748-70.8496 65.8203-70.8496L48.7793-70.8496Q47.8027-70.8496 47.3145-71.4111Q46.8262-71.9727 46.8262-72.6562ZM9.76562 1.26953Q9.76562 6.49414 12.4268 9.15527Q15.0879 11.8164 20.2637 11.8164L57.2754 11.8164Q62.4512 11.8164 65.1123 9.13086Q67.7734 6.44531 67.7734 1.26953L67.7734-53.8086Q67.7734-58.9844 65.1123-61.6699Q62.4512-64.3555 57.2754-64.3555L20.2637-64.3555Q15.0879-64.3555 12.4268-61.6943Q9.76562-59.0332 9.76562-53.8086ZM13.0859 1.17188L13.0859-53.7109Q13.0859-57.3242 14.9414-59.1797Q16.7969-61.0352 20.4102-61.0352L57.1289-61.0352Q60.7422-61.0352 62.5977-59.1797Q64.4531-57.3242 64.4531-53.7109L64.4531 1.17188Q64.4531 4.78516 62.5977 6.64062Q60.7422 8.49609 57.1289 8.49609L20.4102 8.49609Q16.7969 8.49609 14.9414 6.64062Q13.0859 4.78516 13.0859 1.17188ZM20.9961-26.2695Q20.9961-25.6836 21.4111-25.293Q21.8262-24.9023 22.4609-24.9023L44.873-24.9023L50.5371-25L45.9473-20.5078L40.6738-15.2832Q40.1855-14.7949 40.1855-14.209Q40.1855-13.6719 40.5762-13.2568Q40.9668-12.8418 41.5527-12.8418Q42.0898-12.8418 42.5293-13.3301L54.541-25.2441Q55.0293-25.7324 55.0293-26.3184Q55.0293-26.8555 54.541-27.3438L42.5293-39.3066Q42.1387-39.7461 41.5527-39.7461Q40.9668-39.7461 40.5762-39.3555Q40.1855-38.9648 40.1855-38.4277Q40.1855-37.8418 40.6738-37.3535L45.9473-32.1289L50.5859-27.5879L44.873-27.7344L22.4609-27.7344Q21.8262-27.7344 21.4111-27.3438Q20.9961-26.9531 20.9961-26.2695Z"/>
  </g>
  <g id="Ultralight-S" transform="matrix(1 0 0 1 512.006 696)">
   <path d="M28.2715-63.0859L58.7402-63.0859Q62.1094-63.0859 64.0625-60.7666Q66.0156-58.4473 66.0156-54.9316L66.0156-6.15234L75.6836-6.15234Q80.5664-6.15234 83.1055-8.69141Q85.6445-11.2305 85.6445-16.1621L85.6445-71.9238Q85.6445-76.8555 83.1055-79.3945Q80.5664-81.9336 75.6836-81.9336L38.2812-81.9336Q33.4473-81.9336 30.8594-79.3945Q28.2715-76.8555 28.2715-71.9238ZM46.9727-72.7051L46.9727-73.291Q46.9727-73.9258 47.4121-74.4141Q47.8516-74.9023 48.7793-74.9023L65.1367-74.9023Q66.0156-74.9023 66.4795-74.4141Q66.9434-73.9258 66.9434-73.291L66.9434-72.7051Q66.9434-72.0703 66.4795-71.582Q66.0156-71.0938 65.1367-71.0938L48.7793-71.0938Q47.8516-71.0938 47.4121-71.582Q46.9727-72.0703 46.9727-72.7051ZM9.76562 1.41602Q9.76562 6.34766 12.3291 8.88672Q14.8926 11.4258 19.7754 11.4258L57.1777 11.4258Q62.0605 11.4258 64.5996 8.88672Q67.1387 6.34766 67.1387 1.41602L67.1387-54.3457Q67.1387-59.2773 64.5996-61.8164Q62.0605-64.3555 57.1777-64.3555L19.7754-64.3555Q14.8926-64.3555 12.3291-61.8164Q9.76562-59.2773 9.76562-54.3457ZM11.9629 1.31836L11.9629-54.248Q11.9629-58.1543 13.9648-60.1562Q15.9668-62.1582 19.873-62.1582L57.0312-62.1582Q60.9375-62.1582 62.9395-60.1562Q64.9414-58.1543 64.9414-54.248L64.9414 1.31836Q64.9414 5.22461 62.9395 7.20215Q60.9375 9.17969 57.0312 9.17969L19.873 9.17969Q15.9668 9.17969 13.9648 7.20215Q11.9629 5.22461 11.9629 1.31836ZM20.2637-26.4648Q20.2637-26.0254 20.5566-25.7324Q20.8496-25.4395 21.3379-25.4395L46.0449-25.4395L51.2207-25.5371L46.3867-20.6055L40.5762-14.8438Q40.1367-14.4043 40.1367-13.9648Q40.1367-13.5742 40.4297-13.2812Q40.7227-12.9883 41.1621-12.9883Q41.5527-12.9883 41.8945-13.3789L54.3457-25.7812Q54.6875-26.0742 54.6875-26.5137Q54.6875-26.9531 54.3457-27.2461L41.8945-39.6484Q41.5527-40.0391 41.1621-40.0391Q40.7227-40.0391 40.4297-39.7461Q40.1367-39.4531 40.1367-39.0625Q40.1367-38.623 40.5762-38.1836L46.3867-32.4219L51.2695-27.4414L46.0449-27.5879L21.3379-27.5879Q20.8984-27.5879 20.5811-27.2949Q20.2637-27.002 20.2637-26.4648Z"/>
  </g>
 </g>
</svg>
